# MagicaVoxel @ Ephtracy

# group
o 

# material
mtllib etoiles.mtl
usemtl palette

# normals
vn -1 0 0
vn 1 0 0
vn 0 0 1
vn 0 0 -1
vn 0 -1 0
vn 0 1 0

# texcoords
vt 0.814453 0.5
vt 0.916016 0.5
vt 0.939453 0.5
vt 0.974609 0.5

# verts
v -3.9 0.8 0.1
v -3.9 0.8 0
v -3.9 0.9 0.1
v -3.9 0.9 0
v -3.9 6 0.1
v -3.9 6 0
v -3.9 6.1 0.1
v -3.9 6.1 0
v -3.3 9.4 0.1
v -3.3 9.4 0
v -3.3 9.5 0.1
v -3.3 9.5 0
v -3.1 4.5 0.1
v -3.1 4.5 0
v -3.1 4.6 0.1
v -3.1 4.6 0
v -3.1 7.6 0.1
v -3.1 7.6 0
v -3.1 7.7 0.1
v -3.1 7.7 0
v -2.8 3 0.1
v -2.8 3 0
v -2.8 3.1 0.1
v -2.8 3.1 0
v -1.8 0.8 0.1
v -1.8 0.8 0
v -1.8 0.9 0.1
v -1.8 0.9 0
v -1.6 5.3 0.1
v -1.6 5.3 0
v -1.6 5.4 0.1
v -1.6 5.4 0
v -0.5 8.1 0.1
v -0.5 8.1 0
v -0.5 8.2 0.1
v -0.5 8.2 0
v 0 3.6 0.1
v 0 3.6 0
v 0 3.7 0.1
v 0 3.7 0
v 0.2 6.7 0.1
v 0.2 6.7 0
v 0.2 6.8 0.1
v 0.2 6.8 0
v 0.3 2.6 0.1
v 0.3 2.6 0
v 0.3 2.7 0.1
v 0.3 2.7 0
v 1.4 1.5 0.1
v 1.4 1.5 0
v 1.4 1.6 0.1
v 1.4 1.6 0
v 1.5 9.8 0.1
v 1.5 9.8 0
v 1.5 9.9 0.1
v 1.5 9.9 0
v 2.1 7.1 0.1
v 2.1 7.1 0
v 2.1 7.2 0.1
v 2.1 7.2 0
v 2.2 5.5 0.1
v 2.2 5.5 0
v 2.2 5.6 0.1
v 2.2 5.6 0
v 3.3 0.9 0.1
v 3.3 0.9 0
v 3.3 1 0.1
v 3.3 1 0
v 3.9 3.7 0.1
v 3.9 3.7 0
v 3.9 3.8 0.1
v 3.9 3.8 0
v 4 8 0.1
v 4 8 0
v 4 8.1 0.1
v 4 8.1 0
v 4.3 2.9 0.1
v 4.3 2.9 0
v 4.3 3 0.1
v 4.3 3 0
v 4.4 9.1 0.1
v 4.4 9.1 0
v 4.4 9.2 0.1
v 4.4 9.2 0
v -3.8 0.8 0.1
v -3.8 0.8 0
v -3.8 0.9 0.1
v -3.8 0.9 0
v -3.8 6 0.1
v -3.8 6 0
v -3.8 6.1 0.1
v -3.8 6.1 0
v -3.2 9.4 0.1
v -3.2 9.4 0
v -3.2 9.5 0.1
v -3.2 9.5 0
v -3 4.5 0.1
v -3 4.5 0
v -3 4.6 0.1
v -3 4.6 0
v -3 7.6 0.1
v -3 7.6 0
v -3 7.7 0.1
v -3 7.7 0
v -2.7 3 0.1
v -2.7 3 0
v -2.7 3.1 0.1
v -2.7 3.1 0
v -1.7 0.8 0.1
v -1.7 0.8 0
v -1.7 0.9 0.1
v -1.7 0.9 0
v -1.5 5.3 0.1
v -1.5 5.3 0
v -1.5 5.4 0.1
v -1.5 5.4 0
v -0.4 8.1 0.1
v -0.4 8.1 0
v -0.4 8.2 0.1
v -0.4 8.2 0
v 0.0999999 3.6 0.1
v 0.0999999 3.6 0
v 0.0999999 3.7 0.1
v 0.0999999 3.7 0
v 0.3 6.7 0.1
v 0.3 6.7 0
v 0.3 6.8 0.1
v 0.3 6.8 0
v 0.4 2.6 0.1
v 0.4 2.6 0
v 0.4 2.7 0.1
v 0.4 2.7 0
v 1.5 1.5 0.1
v 1.5 1.5 0
v 1.5 1.6 0.1
v 1.5 1.6 0
v 1.6 9.8 0.1
v 1.6 9.8 0
v 1.6 9.9 0.1
v 1.6 9.9 0
v 2.2 7.1 0.1
v 2.2 7.1 0
v 2.2 7.2 0.1
v 2.2 7.2 0
v 2.3 5.5 0.1
v 2.3 5.5 0
v 2.3 5.6 0.1
v 2.3 5.6 0
v 3.4 0.9 0.1
v 3.4 0.9 0
v 3.4 1 0.1
v 3.4 1 0
v 4 3.7 0.1
v 4 3.7 0
v 4 3.8 0.1
v 4 3.8 0
v 4.1 8 0.1
v 4.1 8 0
v 4.1 8.1 0.1
v 4.1 8.1 0
v 4.4 2.9 0.1
v 4.4 2.9 0
v 4.4 3 0.1
v 4.4 3 0
v 4.5 9.1 0.1
v 4.5 9.1 0
v 4.5 9.2 0.1
v 4.5 9.2 0
v -3.9 0.8 0.1
v -3.9 0.9 0.1
v -3.9 6 0.1
v -3.9 6.1 0.1
v -3.8 0.8 0.1
v -3.8 0.9 0.1
v -3.8 6 0.1
v -3.8 6.1 0.1
v -3.3 9.4 0.1
v -3.3 9.5 0.1
v -3.2 9.4 0.1
v -3.2 9.5 0.1
v -3.1 4.5 0.1
v -3.1 4.6 0.1
v -3.1 7.6 0.1
v -3.1 7.7 0.1
v -3 4.5 0.1
v -3 4.6 0.1
v -3 7.6 0.1
v -3 7.7 0.1
v -2.8 3 0.1
v -2.8 3.1 0.1
v -2.7 3 0.1
v -2.7 3.1 0.1
v -1.8 0.8 0.1
v -1.8 0.9 0.1
v -1.7 0.8 0.1
v -1.7 0.9 0.1
v -1.6 5.3 0.1
v -1.6 5.4 0.1
v -1.5 5.3 0.1
v -1.5 5.4 0.1
v -0.5 8.1 0.1
v -0.5 8.2 0.1
v -0.4 8.1 0.1
v -0.4 8.2 0.1
v 0 3.6 0.1
v 0 3.7 0.1
v 0.0999999 3.6 0.1
v 0.0999999 3.7 0.1
v 0.2 6.7 0.1
v 0.2 6.8 0.1
v 0.3 2.6 0.1
v 0.3 2.7 0.1
v 0.3 6.7 0.1
v 0.3 6.8 0.1
v 0.4 2.6 0.1
v 0.4 2.7 0.1
v 1.4 1.5 0.1
v 1.4 1.6 0.1
v 1.5 1.5 0.1
v 1.5 1.6 0.1
v 1.5 9.8 0.1
v 1.5 9.9 0.1
v 1.6 9.8 0.1
v 1.6 9.9 0.1
v 2.1 7.1 0.1
v 2.1 7.2 0.1
v 2.2 5.5 0.1
v 2.2 5.6 0.1
v 2.2 7.1 0.1
v 2.2 7.2 0.1
v 2.3 5.5 0.1
v 2.3 5.6 0.1
v 3.3 0.9 0.1
v 3.3 1 0.1
v 3.4 0.9 0.1
v 3.4 1 0.1
v 3.9 3.7 0.1
v 3.9 3.8 0.1
v 4 3.7 0.1
v 4 3.8 0.1
v 4 8 0.1
v 4 8.1 0.1
v 4.1 8 0.1
v 4.1 8.1 0.1
v 4.3 2.9 0.1
v 4.3 3 0.1
v 4.4 2.9 0.1
v 4.4 3 0.1
v 4.4 9.1 0.1
v 4.4 9.2 0.1
v 4.5 9.1 0.1
v 4.5 9.2 0.1
v -3.9 0.8 0
v -3.9 0.9 0
v -3.9 6 0
v -3.9 6.1 0
v -3.8 0.8 0
v -3.8 0.9 0
v -3.8 6 0
v -3.8 6.1 0
v -3.3 9.4 0
v -3.3 9.5 0
v -3.2 9.4 0
v -3.2 9.5 0
v -3.1 4.5 0
v -3.1 4.6 0
v -3.1 7.6 0
v -3.1 7.7 0
v -3 4.5 0
v -3 4.6 0
v -3 7.6 0
v -3 7.7 0
v -2.8 3 0
v -2.8 3.1 0
v -2.7 3 0
v -2.7 3.1 0
v -1.8 0.8 0
v -1.8 0.9 0
v -1.7 0.8 0
v -1.7 0.9 0
v -1.6 5.3 0
v -1.6 5.4 0
v -1.5 5.3 0
v -1.5 5.4 0
v -0.5 8.1 0
v -0.5 8.2 0
v -0.4 8.1 0
v -0.4 8.2 0
v 0 3.6 0
v 0 3.7 0
v 0.0999999 3.6 0
v 0.0999999 3.7 0
v 0.2 6.7 0
v 0.2 6.8 0
v 0.3 2.6 0
v 0.3 2.7 0
v 0.3 6.7 0
v 0.3 6.8 0
v 0.4 2.6 0
v 0.4 2.7 0
v 1.4 1.5 0
v 1.4 1.6 0
v 1.5 1.5 0
v 1.5 1.6 0
v 1.5 9.8 0
v 1.5 9.9 0
v 1.6 9.8 0
v 1.6 9.9 0
v 2.1 7.1 0
v 2.1 7.2 0
v 2.2 5.5 0
v 2.2 5.6 0
v 2.2 7.1 0
v 2.2 7.2 0
v 2.3 5.5 0
v 2.3 5.6 0
v 3.3 0.9 0
v 3.3 1 0
v 3.4 0.9 0
v 3.4 1 0
v 3.9 3.7 0
v 3.9 3.8 0
v 4 3.7 0
v 4 3.8 0
v 4 8 0
v 4 8.1 0
v 4.1 8 0
v 4.1 8.1 0
v 4.3 2.9 0
v 4.3 3 0
v 4.4 2.9 0
v 4.4 3 0
v 4.4 9.1 0
v 4.4 9.2 0
v 4.5 9.1 0
v 4.5 9.2 0
v -3.9 0.8 0.1
v -3.8 0.8 0.1
v -1.8 0.8 0.1
v -1.7 0.8 0.1
v -3.9 0.8 0
v -3.8 0.8 0
v -1.8 0.8 0
v -1.7 0.8 0
v 3.3 0.9 0.1
v 3.4 0.9 0.1
v 3.3 0.9 0
v 3.4 0.9 0
v 1.4 1.5 0.1
v 1.5 1.5 0.1
v 1.4 1.5 0
v 1.5 1.5 0
v 0.3 2.6 0.1
v 0.4 2.6 0.1
v 0.3 2.6 0
v 0.4 2.6 0
v 4.3 2.9 0.1
v 4.4 2.9 0.1
v 4.3 2.9 0
v 4.4 2.9 0
v -2.8 3 0.1
v -2.7 3 0.1
v -2.8 3 0
v -2.7 3 0
v 0 3.6 0.1
v 0.0999999 3.6 0.1
v 0 3.6 0
v 0.0999999 3.6 0
v 3.9 3.7 0.1
v 4 3.7 0.1
v 3.9 3.7 0
v 4 3.7 0
v -3.1 4.5 0.1
v -3 4.5 0.1
v -3.1 4.5 0
v -3 4.5 0
v -1.6 5.3 0.1
v -1.5 5.3 0.1
v -1.6 5.3 0
v -1.5 5.3 0
v 2.2 5.5 0.1
v 2.3 5.5 0.1
v 2.2 5.5 0
v 2.3 5.5 0
v -3.9 6 0.1
v -3.8 6 0.1
v -3.9 6 0
v -3.8 6 0
v 0.2 6.7 0.1
v 0.3 6.7 0.1
v 0.2 6.7 0
v 0.3 6.7 0
v 2.1 7.1 0.1
v 2.2 7.1 0.1
v 2.1 7.1 0
v 2.2 7.1 0
v -3.1 7.6 0.1
v -3 7.6 0.1
v -3.1 7.6 0
v -3 7.6 0
v 4 8 0.1
v 4.1 8 0.1
v 4 8 0
v 4.1 8 0
v -0.5 8.1 0.1
v -0.4 8.1 0.1
v -0.5 8.1 0
v -0.4 8.1 0
v 4.4 9.1 0.1
v 4.5 9.1 0.1
v 4.4 9.1 0
v 4.5 9.1 0
v -3.3 9.4 0.1
v -3.2 9.4 0.1
v -3.3 9.4 0
v -3.2 9.4 0
v 1.5 9.8 0.1
v 1.6 9.8 0.1
v 1.5 9.8 0
v 1.6 9.8 0
v -3.9 0.9 0.1
v -3.8 0.9 0.1
v -1.8 0.9 0.1
v -1.7 0.9 0.1
v -3.9 0.9 0
v -3.8 0.9 0
v -1.8 0.9 0
v -1.7 0.9 0
v 3.3 1 0.1
v 3.4 1 0.1
v 3.3 1 0
v 3.4 1 0
v 1.4 1.6 0.1
v 1.5 1.6 0.1
v 1.4 1.6 0
v 1.5 1.6 0
v 0.3 2.7 0.1
v 0.4 2.7 0.1
v 0.3 2.7 0
v 0.4 2.7 0
v 4.3 3 0.1
v 4.4 3 0.1
v 4.3 3 0
v 4.4 3 0
v -2.8 3.1 0.1
v -2.7 3.1 0.1
v -2.8 3.1 0
v -2.7 3.1 0
v 0 3.7 0.1
v 0.0999999 3.7 0.1
v 0 3.7 0
v 0.0999999 3.7 0
v 3.9 3.8 0.1
v 4 3.8 0.1
v 3.9 3.8 0
v 4 3.8 0
v -3.1 4.6 0.1
v -3 4.6 0.1
v -3.1 4.6 0
v -3 4.6 0
v -1.6 5.4 0.1
v -1.5 5.4 0.1
v -1.6 5.4 0
v -1.5 5.4 0
v 2.2 5.6 0.1
v 2.3 5.6 0.1
v 2.2 5.6 0
v 2.3 5.6 0
v -3.9 6.1 0.1
v -3.8 6.1 0.1
v -3.9 6.1 0
v -3.8 6.1 0
v 0.2 6.8 0.1
v 0.3 6.8 0.1
v 0.2 6.8 0
v 0.3 6.8 0
v 2.1 7.2 0.1
v 2.2 7.2 0.1
v 2.1 7.2 0
v 2.2 7.2 0
v -3.1 7.7 0.1
v -3 7.7 0.1
v -3.1 7.7 0
v -3 7.7 0
v 4 8.1 0.1
v 4.1 8.1 0.1
v 4 8.1 0
v 4.1 8.1 0
v -0.5 8.2 0.1
v -0.4 8.2 0.1
v -0.5 8.2 0
v -0.4 8.2 0
v 4.4 9.2 0.1
v 4.5 9.2 0.1
v 4.4 9.2 0
v 4.5 9.2 0
v -3.3 9.5 0.1
v -3.2 9.5 0.1
v -3.3 9.5 0
v -3.2 9.5 0
v 1.5 9.9 0.1
v 1.6 9.9 0.1
v 1.5 9.9 0
v 1.6 9.9 0

# faces
f 3/2/1 2/2/1 1/2/1
f 4/2/1 2/2/1 3/2/1
f 7/4/1 6/4/1 5/4/1
f 8/4/1 6/4/1 7/4/1
f 11/4/1 10/4/1 9/4/1
f 12/4/1 10/4/1 11/4/1
f 15/2/1 14/2/1 13/2/1
f 16/2/1 14/2/1 15/2/1
f 19/3/1 18/3/1 17/3/1
f 20/3/1 18/3/1 19/3/1
f 23/4/1 22/4/1 21/4/1
f 24/4/1 22/4/1 23/4/1
f 27/1/1 26/1/1 25/1/1
f 28/1/1 26/1/1 27/1/1
f 31/4/1 30/4/1 29/4/1
f 32/4/1 30/4/1 31/4/1
f 35/4/1 34/4/1 33/4/1
f 36/4/1 34/4/1 35/4/1
f 39/3/1 38/3/1 37/3/1
f 40/3/1 38/3/1 39/3/1
f 43/1/1 42/1/1 41/1/1
f 44/1/1 42/1/1 43/1/1
f 47/4/1 46/4/1 45/4/1
f 48/4/1 46/4/1 47/4/1
f 51/3/1 50/3/1 49/3/1
f 52/3/1 50/3/1 51/3/1
f 55/1/1 54/1/1 53/1/1
f 56/1/1 54/1/1 55/1/1
f 59/2/1 58/2/1 57/2/1
f 60/2/1 58/2/1 59/2/1
f 63/4/1 62/4/1 61/4/1
f 64/4/1 62/4/1 63/4/1
f 67/4/1 66/4/1 65/4/1
f 68/4/1 66/4/1 67/4/1
f 71/1/1 70/1/1 69/1/1
f 72/1/1 70/1/1 71/1/1
f 75/4/1 74/4/1 73/4/1
f 76/4/1 74/4/1 75/4/1
f 79/3/1 78/3/1 77/3/1
f 80/3/1 78/3/1 79/3/1
f 83/3/1 82/3/1 81/3/1
f 84/3/1 82/3/1 83/3/1
f 85/2/2 86/2/2 87/2/2
f 87/2/2 86/2/2 88/2/2
f 89/4/2 90/4/2 91/4/2
f 91/4/2 90/4/2 92/4/2
f 93/4/2 94/4/2 95/4/2
f 95/4/2 94/4/2 96/4/2
f 97/2/2 98/2/2 99/2/2
f 99/2/2 98/2/2 100/2/2
f 101/3/2 102/3/2 103/3/2
f 103/3/2 102/3/2 104/3/2
f 105/4/2 106/4/2 107/4/2
f 107/4/2 106/4/2 108/4/2
f 109/1/2 110/1/2 111/1/2
f 111/1/2 110/1/2 112/1/2
f 113/4/2 114/4/2 115/4/2
f 115/4/2 114/4/2 116/4/2
f 117/4/2 118/4/2 119/4/2
f 119/4/2 118/4/2 120/4/2
f 121/3/2 122/3/2 123/3/2
f 123/3/2 122/3/2 124/3/2
f 125/1/2 126/1/2 127/1/2
f 127/1/2 126/1/2 128/1/2
f 129/4/2 130/4/2 131/4/2
f 131/4/2 130/4/2 132/4/2
f 133/3/2 134/3/2 135/3/2
f 135/3/2 134/3/2 136/3/2
f 137/1/2 138/1/2 139/1/2
f 139/1/2 138/1/2 140/1/2
f 141/2/2 142/2/2 143/2/2
f 143/2/2 142/2/2 144/2/2
f 145/4/2 146/4/2 147/4/2
f 147/4/2 146/4/2 148/4/2
f 149/4/2 150/4/2 151/4/2
f 151/4/2 150/4/2 152/4/2
f 153/1/2 154/1/2 155/1/2
f 155/1/2 154/1/2 156/1/2
f 157/4/2 158/4/2 159/4/2
f 159/4/2 158/4/2 160/4/2
f 161/3/2 162/3/2 163/3/2
f 163/3/2 162/3/2 164/3/2
f 165/3/2 166/3/2 167/3/2
f 167/3/2 166/3/2 168/3/2
f 173/2/3 170/2/3 169/2/3
f 174/2/3 170/2/3 173/2/3
f 175/4/3 172/4/3 171/4/3
f 176/4/3 172/4/3 175/4/3
f 179/4/3 178/4/3 177/4/3
f 180/4/3 178/4/3 179/4/3
f 185/2/3 182/2/3 181/2/3
f 186/2/3 182/2/3 185/2/3
f 187/3/3 184/3/3 183/3/3
f 188/3/3 184/3/3 187/3/3
f 191/4/3 190/4/3 189/4/3
f 192/4/3 190/4/3 191/4/3
f 195/1/3 194/1/3 193/1/3
f 196/1/3 194/1/3 195/1/3
f 199/4/3 198/4/3 197/4/3
f 200/4/3 198/4/3 199/4/3
f 203/4/3 202/4/3 201/4/3
f 204/4/3 202/4/3 203/4/3
f 207/3/3 206/3/3 205/3/3
f 208/3/3 206/3/3 207/3/3
f 213/1/3 210/1/3 209/1/3
f 214/1/3 210/1/3 213/1/3
f 215/4/3 212/4/3 211/4/3
f 216/4/3 212/4/3 215/4/3
f 219/3/3 218/3/3 217/3/3
f 220/3/3 218/3/3 219/3/3
f 223/1/3 222/1/3 221/1/3
f 224/1/3 222/1/3 223/1/3
f 229/2/3 226/2/3 225/2/3
f 230/2/3 226/2/3 229/2/3
f 231/4/3 228/4/3 227/4/3
f 232/4/3 228/4/3 231/4/3
f 235/4/3 234/4/3 233/4/3
f 236/4/3 234/4/3 235/4/3
f 239/1/3 238/1/3 237/1/3
f 240/1/3 238/1/3 239/1/3
f 243/4/3 242/4/3 241/4/3
f 244/4/3 242/4/3 243/4/3
f 247/3/3 246/3/3 245/3/3
f 248/3/3 246/3/3 247/3/3
f 251/3/3 250/3/3 249/3/3
f 252/3/3 250/3/3 251/3/3
f 253/2/4 254/2/4 257/2/4
f 257/2/4 254/2/4 258/2/4
f 255/4/4 256/4/4 259/4/4
f 259/4/4 256/4/4 260/4/4
f 261/4/4 262/4/4 263/4/4
f 263/4/4 262/4/4 264/4/4
f 265/2/4 266/2/4 269/2/4
f 269/2/4 266/2/4 270/2/4
f 267/3/4 268/3/4 271/3/4
f 271/3/4 268/3/4 272/3/4
f 273/4/4 274/4/4 275/4/4
f 275/4/4 274/4/4 276/4/4
f 277/1/4 278/1/4 279/1/4
f 279/1/4 278/1/4 280/1/4
f 281/4/4 282/4/4 283/4/4
f 283/4/4 282/4/4 284/4/4
f 285/4/4 286/4/4 287/4/4
f 287/4/4 286/4/4 288/4/4
f 289/3/4 290/3/4 291/3/4
f 291/3/4 290/3/4 292/3/4
f 293/1/4 294/1/4 297/1/4
f 297/1/4 294/1/4 298/1/4
f 295/4/4 296/4/4 299/4/4
f 299/4/4 296/4/4 300/4/4
f 301/3/4 302/3/4 303/3/4
f 303/3/4 302/3/4 304/3/4
f 305/1/4 306/1/4 307/1/4
f 307/1/4 306/1/4 308/1/4
f 309/2/4 310/2/4 313/2/4
f 313/2/4 310/2/4 314/2/4
f 311/4/4 312/4/4 315/4/4
f 315/4/4 312/4/4 316/4/4
f 317/4/4 318/4/4 319/4/4
f 319/4/4 318/4/4 320/4/4
f 321/1/4 322/1/4 323/1/4
f 323/1/4 322/1/4 324/1/4
f 325/4/4 326/4/4 327/4/4
f 327/4/4 326/4/4 328/4/4
f 329/3/4 330/3/4 331/3/4
f 331/3/4 330/3/4 332/3/4
f 333/3/4 334/3/4 335/3/4
f 335/3/4 334/3/4 336/3/4
f 341/2/5 338/2/5 337/2/5
f 342/2/5 338/2/5 341/2/5
f 343/1/5 340/1/5 339/1/5
f 344/1/5 340/1/5 343/1/5
f 347/4/5 346/4/5 345/4/5
f 348/4/5 346/4/5 347/4/5
f 351/3/5 350/3/5 349/3/5
f 352/3/5 350/3/5 351/3/5
f 355/4/5 354/4/5 353/4/5
f 356/4/5 354/4/5 355/4/5
f 359/3/5 358/3/5 357/3/5
f 360/3/5 358/3/5 359/3/5
f 363/4/5 362/4/5 361/4/5
f 364/4/5 362/4/5 363/4/5
f 367/3/5 366/3/5 365/3/5
f 368/3/5 366/3/5 367/3/5
f 371/1/5 370/1/5 369/1/5
f 372/1/5 370/1/5 371/1/5
f 375/2/5 374/2/5 373/2/5
f 376/2/5 374/2/5 375/2/5
f 379/4/5 378/4/5 377/4/5
f 380/4/5 378/4/5 379/4/5
f 383/4/5 382/4/5 381/4/5
f 384/4/5 382/4/5 383/4/5
f 387/4/5 386/4/5 385/4/5
f 388/4/5 386/4/5 387/4/5
f 391/1/5 390/1/5 389/1/5
f 392/1/5 390/1/5 391/1/5
f 395/2/5 394/2/5 393/2/5
f 396/2/5 394/2/5 395/2/5
f 399/3/5 398/3/5 397/3/5
f 400/3/5 398/3/5 399/3/5
f 403/4/5 402/4/5 401/4/5
f 404/4/5 402/4/5 403/4/5
f 407/4/5 406/4/5 405/4/5
f 408/4/5 406/4/5 407/4/5
f 411/3/5 410/3/5 409/3/5
f 412/3/5 410/3/5 411/3/5
f 415/4/5 414/4/5 413/4/5
f 416/4/5 414/4/5 415/4/5
f 419/1/5 418/1/5 417/1/5
f 420/1/5 418/1/5 419/1/5
f 421/2/6 422/2/6 425/2/6
f 425/2/6 422/2/6 426/2/6
f 423/1/6 424/1/6 427/1/6
f 427/1/6 424/1/6 428/1/6
f 429/4/6 430/4/6 431/4/6
f 431/4/6 430/4/6 432/4/6
f 433/3/6 434/3/6 435/3/6
f 435/3/6 434/3/6 436/3/6
f 437/4/6 438/4/6 439/4/6
f 439/4/6 438/4/6 440/4/6
f 441/3/6 442/3/6 443/3/6
f 443/3/6 442/3/6 444/3/6
f 445/4/6 446/4/6 447/4/6
f 447/4/6 446/4/6 448/4/6
f 449/3/6 450/3/6 451/3/6
f 451/3/6 450/3/6 452/3/6
f 453/1/6 454/1/6 455/1/6
f 455/1/6 454/1/6 456/1/6
f 457/2/6 458/2/6 459/2/6
f 459/2/6 458/2/6 460/2/6
f 461/4/6 462/4/6 463/4/6
f 463/4/6 462/4/6 464/4/6
f 465/4/6 466/4/6 467/4/6
f 467/4/6 466/4/6 468/4/6
f 469/4/6 470/4/6 471/4/6
f 471/4/6 470/4/6 472/4/6
f 473/1/6 474/1/6 475/1/6
f 475/1/6 474/1/6 476/1/6
f 477/2/6 478/2/6 479/2/6
f 479/2/6 478/2/6 480/2/6
f 481/3/6 482/3/6 483/3/6
f 483/3/6 482/3/6 484/3/6
f 485/4/6 486/4/6 487/4/6
f 487/4/6 486/4/6 488/4/6
f 489/4/6 490/4/6 491/4/6
f 491/4/6 490/4/6 492/4/6
f 493/3/6 494/3/6 495/3/6
f 495/3/6 494/3/6 496/3/6
f 497/4/6 498/4/6 499/4/6
f 499/4/6 498/4/6 500/4/6
f 501/1/6 502/1/6 503/1/6
f 503/1/6 502/1/6 504/1/6
