# MagicaVoxel @ Ephtracy

# group
o 

# material
mtllib missile.mtl
usemtl palette

# normals
vn -1 0 0
vn 1 0 0
vn 0 0 1
vn 0 0 -1
vn 0 -1 0
vn 0 1 0

# texcoords
vt 0.751953 0.5
vt 0.814453 0.5
vt 0.974609 0.5

# verts
v -0.4 0.5 -0.1
v -0.4 0.5 -0.3
v -0.4 0.8 -0.1
v -0.4 0.8 -0.3
v -0.3 0.6 0
v -0.3 0.6 -0.1
v -0.3 0.6 -0.3
v -0.3 0.6 -0.4
v -0.3 0.7 0
v -0.3 0.7 -0.1
v -0.3 0.7 -0.3
v -0.3 0.7 -0.4
v -0.3 0.8 -0.1
v -0.3 0.8 -0.3
v -0.3 0.9 -0.1
v -0.3 0.9 -0.3
v -0.2 0.4 -0.1
v -0.2 0.4 -0.3
v -0.2 0.5 0
v -0.2 0.5 -0.1
v -0.2 0.5 -0.3
v -0.2 0.5 -0.4
v -0.2 0.6 0
v -0.2 0.6 -0.1
v -0.2 0.6 -0.3
v -0.2 0.6 -0.4
v -0.2 0.7 0
v -0.2 0.7 -0.1
v -0.2 0.7 -0.3
v -0.2 0.7 -0.4
v -0.2 0.9 0
v -0.2 0.9 -0.1
v -0.2 0.9 -0.3
v -0.2 0.9 -0.4
v -0.2 1 -0.1
v -0.2 1 -0.3
v -0.1 0 -0.1
v -0.1 0 -0.3
v -0.1 0.4 -0.1
v -0.1 0.4 -0.3
v -0.1 0.9 0
v -0.1 0.9 -0.1
v -0.1 0.9 -0.3
v -0.1 0.9 -0.4
v -0.1 1 0
v -0.1 1 -0.1
v -0.1 1 -0.3
v -0.1 1 -0.4
v -0.1 1.2 -0.1
v -0.1 1.2 -0.3
v -0.1 1.4 -0.1
v -0.1 1.4 -0.3
v 0.1 0 -0.1
v 0.1 0 -0.3
v 0.1 0.4 -0.1
v 0.1 0.4 -0.3
v 0.1 0.9 0
v 0.1 0.9 -0.1
v 0.1 0.9 -0.3
v 0.1 0.9 -0.4
v 0.1 1 0
v 0.1 1 -0.1
v 0.1 1 -0.3
v 0.1 1 -0.4
v 0.1 1.2 -0.1
v 0.1 1.2 -0.3
v 0.1 1.4 -0.1
v 0.1 1.4 -0.3
v 0.2 0.4 -0.1
v 0.2 0.4 -0.3
v 0.2 0.5 0
v 0.2 0.5 -0.1
v 0.2 0.5 -0.3
v 0.2 0.5 -0.4
v 0.2 0.6 0
v 0.2 0.6 -0.1
v 0.2 0.6 -0.3
v 0.2 0.6 -0.4
v 0.2 0.7 0
v 0.2 0.7 -0.1
v 0.2 0.7 -0.3
v 0.2 0.7 -0.4
v 0.2 0.9 0
v 0.2 0.9 -0.1
v 0.2 0.9 -0.3
v 0.2 0.9 -0.4
v 0.2 1 -0.1
v 0.2 1 -0.3
v 0.3 0.6 0
v 0.3 0.6 -0.1
v 0.3 0.6 -0.3
v 0.3 0.6 -0.4
v 0.3 0.7 0
v 0.3 0.7 -0.1
v 0.3 0.7 -0.3
v 0.3 0.7 -0.4
v 0.3 0.8 -0.1
v 0.3 0.8 -0.3
v 0.3 0.9 -0.1
v 0.3 0.9 -0.3
v 0.4 0.5 -0.1
v 0.4 0.5 -0.3
v 0.4 0.8 -0.1
v 0.4 0.8 -0.3
v -0.3 0.6 0
v -0.3 0.7 0
v -0.2 0.5 0
v -0.2 0.6 0
v -0.2 0.7 0
v -0.2 0.9 0
v -0.1 0.5 0
v -0.1 0.9 0
v -0.1 1 0
v 0.1 0.5 0
v 0.1 0.9 0
v 0.1 1 0
v 0.2 0.5 0
v 0.2 0.6 0
v 0.2 0.7 0
v 0.2 0.9 0
v 0.3 0.6 0
v 0.3 0.7 0
v -0.4 0.5 -0.1
v -0.4 0.8 -0.1
v -0.3 0.6 -0.1
v -0.3 0.7 -0.1
v -0.3 0.8 -0.1
v -0.3 0.9 -0.1
v -0.2 0.4 -0.1
v -0.2 0.5 -0.1
v -0.2 0.6 -0.1
v -0.2 0.7 -0.1
v -0.2 0.9 -0.1
v -0.2 1 -0.1
v -0.1 0 -0.1
v -0.1 0.4 -0.1
v -0.1 0.5 -0.1
v -0.1 0.9 -0.1
v -0.1 1 -0.1
v -0.1 1.2 -0.1
v -0.1 1.4 -0.1
v 0.1 0 -0.1
v 0.1 0.4 -0.1
v 0.1 0.5 -0.1
v 0.1 0.9 -0.1
v 0.1 1 -0.1
v 0.1 1.2 -0.1
v 0.1 1.4 -0.1
v 0.2 0.4 -0.1
v 0.2 0.5 -0.1
v 0.2 0.6 -0.1
v 0.2 0.7 -0.1
v 0.2 0.9 -0.1
v 0.2 1 -0.1
v 0.3 0.6 -0.1
v 0.3 0.7 -0.1
v 0.3 0.8 -0.1
v 0.3 0.9 -0.1
v 0.4 0.5 -0.1
v 0.4 0.8 -0.1
v -0.4 0.5 -0.3
v -0.4 0.8 -0.3
v -0.3 0.6 -0.3
v -0.3 0.7 -0.3
v -0.3 0.8 -0.3
v -0.3 0.9 -0.3
v -0.2 0.4 -0.3
v -0.2 0.5 -0.3
v -0.2 0.6 -0.3
v -0.2 0.7 -0.3
v -0.2 0.9 -0.3
v -0.2 1 -0.3
v -0.1 0 -0.3
v -0.1 0.4 -0.3
v -0.1 0.5 -0.3
v -0.1 0.9 -0.3
v -0.1 1 -0.3
v -0.1 1.2 -0.3
v -0.1 1.4 -0.3
v 0.1 0 -0.3
v 0.1 0.4 -0.3
v 0.1 0.5 -0.3
v 0.1 0.9 -0.3
v 0.1 1 -0.3
v 0.1 1.2 -0.3
v 0.1 1.4 -0.3
v 0.2 0.4 -0.3
v 0.2 0.5 -0.3
v 0.2 0.6 -0.3
v 0.2 0.7 -0.3
v 0.2 0.9 -0.3
v 0.2 1 -0.3
v 0.3 0.6 -0.3
v 0.3 0.7 -0.3
v 0.3 0.8 -0.3
v 0.3 0.9 -0.3
v 0.4 0.5 -0.3
v 0.4 0.8 -0.3
v -0.3 0.6 -0.4
v -0.3 0.7 -0.4
v -0.2 0.5 -0.4
v -0.2 0.6 -0.4
v -0.2 0.7 -0.4
v -0.2 0.9 -0.4
v -0.1 0.5 -0.4
v -0.1 0.9 -0.4
v -0.1 1 -0.4
v 0.1 0.5 -0.4
v 0.1 0.9 -0.4
v 0.1 1 -0.4
v 0.2 0.5 -0.4
v 0.2 0.6 -0.4
v 0.2 0.7 -0.4
v 0.2 0.9 -0.4
v 0.3 0.6 -0.4
v 0.3 0.7 -0.4
v -0.1 0 -0.1
v 0.1 0 -0.1
v -0.1 0 -0.3
v 0.1 0 -0.3
v -0.2 0.4 -0.1
v -0.1 0.4 -0.1
v 0.1 0.4 -0.1
v 0.2 0.4 -0.1
v -0.2 0.4 -0.3
v -0.1 0.4 -0.3
v 0.1 0.4 -0.3
v 0.2 0.4 -0.3
v -0.2 0.5 0
v -0.1 0.5 0
v 0.1 0.5 0
v 0.2 0.5 0
v -0.4 0.5 -0.1
v -0.2 0.5 -0.1
v -0.1 0.5 -0.1
v 0.1 0.5 -0.1
v 0.2 0.5 -0.1
v 0.4 0.5 -0.1
v -0.4 0.5 -0.3
v -0.2 0.5 -0.3
v -0.1 0.5 -0.3
v 0.1 0.5 -0.3
v 0.2 0.5 -0.3
v 0.4 0.5 -0.3
v -0.2 0.5 -0.4
v -0.1 0.5 -0.4
v 0.1 0.5 -0.4
v 0.2 0.5 -0.4
v -0.3 0.6 0
v -0.2 0.6 0
v 0.2 0.6 0
v 0.3 0.6 0
v -0.3 0.6 -0.1
v -0.2 0.6 -0.1
v 0.2 0.6 -0.1
v 0.3 0.6 -0.1
v -0.3 0.6 -0.3
v -0.2 0.6 -0.3
v 0.2 0.6 -0.3
v 0.3 0.6 -0.3
v -0.3 0.6 -0.4
v -0.2 0.6 -0.4
v 0.2 0.6 -0.4
v 0.3 0.6 -0.4
v -0.3 0.7 0
v -0.2 0.7 0
v 0.2 0.7 0
v 0.3 0.7 0
v -0.3 0.7 -0.1
v -0.2 0.7 -0.1
v 0.2 0.7 -0.1
v 0.3 0.7 -0.1
v -0.3 0.7 -0.3
v -0.2 0.7 -0.3
v 0.2 0.7 -0.3
v 0.3 0.7 -0.3
v -0.3 0.7 -0.4
v -0.2 0.7 -0.4
v 0.2 0.7 -0.4
v 0.3 0.7 -0.4
v -0.4 0.8 -0.1
v -0.3 0.8 -0.1
v 0.3 0.8 -0.1
v 0.4 0.8 -0.1
v -0.4 0.8 -0.3
v -0.3 0.8 -0.3
v 0.3 0.8 -0.3
v 0.4 0.8 -0.3
v -0.2 0.9 0
v -0.1 0.9 0
v 0.1 0.9 0
v 0.2 0.9 0
v -0.3 0.9 -0.1
v -0.2 0.9 -0.1
v -0.1 0.9 -0.1
v 0.1 0.9 -0.1
v 0.2 0.9 -0.1
v 0.3 0.9 -0.1
v -0.3 0.9 -0.3
v -0.2 0.9 -0.3
v -0.1 0.9 -0.3
v 0.1 0.9 -0.3
v 0.2 0.9 -0.3
v 0.3 0.9 -0.3
v -0.2 0.9 -0.4
v -0.1 0.9 -0.4
v 0.1 0.9 -0.4
v 0.2 0.9 -0.4
v -0.1 1 0
v 0.1 1 0
v -0.2 1 -0.1
v -0.1 1 -0.1
v 0.1 1 -0.1
v 0.2 1 -0.1
v -0.2 1 -0.3
v -0.1 1 -0.3
v 0.1 1 -0.3
v 0.2 1 -0.3
v -0.1 1 -0.4
v 0.1 1 -0.4
v -0.1 1.4 -0.1
v 0.1 1.4 -0.1
v -0.1 1.4 -0.3
v 0.1 1.4 -0.3

# faces
f 3/3/1 2/3/1 1/3/1
f 4/3/1 2/3/1 3/3/1
f 9/1/1 6/1/1 5/1/1
f 10/1/1 6/1/1 9/1/1
f 11/1/1 8/1/1 7/1/1
f 12/1/1 8/1/1 11/1/1
f 15/3/1 14/3/1 13/3/1
f 16/3/1 14/3/1 15/3/1
f 20/3/1 18/3/1 17/3/1
f 21/3/1 18/3/1 20/3/1
f 23/1/1 20/1/1 19/1/1
f 24/1/1 20/1/1 23/1/1
f 25/1/1 22/1/1 21/1/1
f 26/1/1 22/1/1 25/1/1
f 31/1/1 28/1/1 27/1/1
f 32/1/1 28/1/1 31/1/1
f 33/1/1 30/1/1 29/1/1
f 34/1/1 30/1/1 33/1/1
f 35/3/1 33/3/1 32/3/1
f 36/3/1 33/3/1 35/3/1
f 39/3/1 38/3/1 37/3/1
f 40/3/1 38/3/1 39/3/1
f 45/3/1 42/3/1 41/3/1
f 46/3/1 42/3/1 45/3/1
f 47/3/1 44/3/1 43/3/1
f 48/3/1 44/3/1 47/3/1
f 49/3/1 47/3/1 46/3/1
f 50/3/1 47/3/1 49/3/1
f 51/2/1 50/2/1 49/2/1
f 52/2/1 50/2/1 51/2/1
f 53/3/2 54/3/2 55/3/2
f 55/3/2 54/3/2 56/3/2
f 57/3/2 58/3/2 61/3/2
f 61/3/2 58/3/2 62/3/2
f 59/3/2 60/3/2 63/3/2
f 63/3/2 60/3/2 64/3/2
f 62/3/2 63/3/2 65/3/2
f 65/3/2 63/3/2 66/3/2
f 65/2/2 66/2/2 67/2/2
f 67/2/2 66/2/2 68/2/2
f 69/3/2 70/3/2 72/3/2
f 72/3/2 70/3/2 73/3/2
f 71/1/2 72/1/2 75/1/2
f 75/1/2 72/1/2 76/1/2
f 73/1/2 74/1/2 77/1/2
f 77/1/2 74/1/2 78/1/2
f 79/1/2 80/1/2 83/1/2
f 83/1/2 80/1/2 84/1/2
f 81/1/2 82/1/2 85/1/2
f 85/1/2 82/1/2 86/1/2
f 84/3/2 85/3/2 87/3/2
f 87/3/2 85/3/2 88/3/2
f 89/1/2 90/1/2 93/1/2
f 93/1/2 90/1/2 94/1/2
f 91/1/2 92/1/2 95/1/2
f 95/1/2 92/1/2 96/1/2
f 97/3/2 98/3/2 99/3/2
f 99/3/2 98/3/2 100/3/2
f 101/3/2 102/3/2 103/3/2
f 103/3/2 102/3/2 104/3/2
f 108/1/3 106/1/3 105/1/3
f 109/1/3 106/1/3 108/1/3
f 111/1/3 108/1/3 107/1/3
f 111/1/3 110/1/3 109/1/3
f 111/1/3 109/1/3 108/1/3
f 112/1/3 110/1/3 111/1/3
f 114/3/3 112/3/3 111/3/3
f 114/3/3 113/3/3 112/3/3
f 115/3/3 113/3/3 114/3/3
f 116/3/3 113/3/3 115/3/3
f 117/1/3 115/1/3 114/1/3
f 118/1/3 115/1/3 117/1/3
f 119/1/3 115/1/3 118/1/3
f 120/1/3 115/1/3 119/1/3
f 121/1/3 119/1/3 118/1/3
f 122/1/3 119/1/3 121/1/3
f 125/3/3 124/3/3 123/3/3
f 126/3/3 124/3/3 125/3/3
f 127/3/3 124/3/3 126/3/3
f 130/3/3 125/3/3 123/3/3
f 131/3/3 125/3/3 130/3/3
f 132/3/3 127/3/3 126/3/3
f 132/3/3 128/3/3 127/3/3
f 133/3/3 128/3/3 132/3/3
f 136/3/3 130/3/3 129/3/3
f 137/3/3 130/3/3 136/3/3
f 138/3/3 134/3/3 133/3/3
f 139/3/3 134/3/3 138/3/3
f 142/3/3 137/3/3 136/3/3
f 142/3/3 136/3/3 135/3/3
f 143/3/3 137/3/3 142/3/3
f 144/3/3 137/3/3 143/3/3
f 146/3/3 140/3/3 139/3/3
f 147/2/3 141/2/3 140/2/3
f 147/3/3 140/3/3 146/3/3
f 148/2/3 141/2/3 147/2/3
f 149/3/3 144/3/3 143/3/3
f 150/3/3 144/3/3 149/3/3
f 153/3/3 146/3/3 145/3/3
f 154/3/3 146/3/3 153/3/3
f 155/3/3 151/3/3 150/3/3
f 156/3/3 153/3/3 152/3/3
f 157/3/3 153/3/3 156/3/3
f 158/3/3 153/3/3 157/3/3
f 159/3/3 155/3/3 150/3/3
f 159/3/3 156/3/3 155/3/3
f 159/3/3 157/3/3 156/3/3
f 160/3/3 157/3/3 159/3/3
f 161/3/4 162/3/4 163/3/4
f 163/3/4 162/3/4 164/3/4
f 164/3/4 162/3/4 165/3/4
f 161/3/4 163/3/4 168/3/4
f 168/3/4 163/3/4 169/3/4
f 164/3/4 165/3/4 170/3/4
f 165/3/4 166/3/4 170/3/4
f 170/3/4 166/3/4 171/3/4
f 167/3/4 168/3/4 174/3/4
f 174/3/4 168/3/4 175/3/4
f 171/3/4 172/3/4 176/3/4
f 176/3/4 172/3/4 177/3/4
f 174/3/4 175/3/4 180/3/4
f 173/3/4 174/3/4 180/3/4
f 180/3/4 175/3/4 181/3/4
f 181/3/4 175/3/4 182/3/4
f 177/3/4 178/3/4 184/3/4
f 178/2/4 179/2/4 185/2/4
f 184/3/4 178/3/4 185/3/4
f 185/2/4 179/2/4 186/2/4
f 181/3/4 182/3/4 187/3/4
f 187/3/4 182/3/4 188/3/4
f 183/3/4 184/3/4 191/3/4
f 191/3/4 184/3/4 192/3/4
f 188/3/4 189/3/4 193/3/4
f 190/3/4 191/3/4 194/3/4
f 194/3/4 191/3/4 195/3/4
f 195/3/4 191/3/4 196/3/4
f 188/3/4 193/3/4 197/3/4
f 193/3/4 194/3/4 197/3/4
f 194/3/4 195/3/4 197/3/4
f 197/3/4 195/3/4 198/3/4
f 199/1/4 200/1/4 202/1/4
f 202/1/4 200/1/4 203/1/4
f 201/1/4 202/1/4 205/1/4
f 203/1/4 204/1/4 205/1/4
f 202/1/4 203/1/4 205/1/4
f 205/1/4 204/1/4 206/1/4
f 205/3/4 206/3/4 208/3/4
f 206/3/4 207/3/4 208/3/4
f 208/3/4 207/3/4 209/3/4
f 209/3/4 207/3/4 210/3/4
f 208/1/4 209/1/4 211/1/4
f 211/1/4 209/1/4 212/1/4
f 212/1/4 209/1/4 213/1/4
f 213/1/4 209/1/4 214/1/4
f 212/1/4 213/1/4 215/1/4
f 215/1/4 213/1/4 216/1/4
f 219/3/5 218/3/5 217/3/5
f 220/3/5 218/3/5 219/3/5
f 225/3/5 222/3/5 221/3/5
f 226/3/5 222/3/5 225/3/5
f 227/3/5 224/3/5 223/3/5
f 228/3/5 224/3/5 227/3/5
f 234/1/5 230/1/5 229/1/5
f 235/3/5 231/3/5 230/3/5
f 235/1/5 230/1/5 234/1/5
f 236/1/5 232/1/5 231/1/5
f 236/3/5 231/3/5 235/3/5
f 237/1/5 232/1/5 236/1/5
f 239/3/5 234/3/5 233/3/5
f 240/3/5 234/3/5 239/3/5
f 243/3/5 238/3/5 237/3/5
f 244/3/5 238/3/5 243/3/5
f 245/1/5 241/1/5 240/1/5
f 246/3/5 242/3/5 241/3/5
f 246/1/5 241/1/5 245/1/5
f 247/1/5 243/1/5 242/1/5
f 247/3/5 242/3/5 246/3/5
f 248/1/5 243/1/5 247/1/5
f 253/1/5 250/1/5 249/1/5
f 254/1/5 250/1/5 253/1/5
f 255/1/5 252/1/5 251/1/5
f 256/1/5 252/1/5 255/1/5
f 261/1/5 258/1/5 257/1/5
f 262/1/5 258/1/5 261/1/5
f 263/1/5 260/1/5 259/1/5
f 264/1/5 260/1/5 263/1/5
f 265/1/6 266/1/6 269/1/6
f 269/1/6 266/1/6 270/1/6
f 267/1/6 268/1/6 271/1/6
f 271/1/6 268/1/6 272/1/6
f 273/1/6 274/1/6 277/1/6
f 277/1/6 274/1/6 278/1/6
f 275/1/6 276/1/6 279/1/6
f 279/1/6 276/1/6 280/1/6
f 281/3/6 282/3/6 285/3/6
f 285/3/6 282/3/6 286/3/6
f 283/3/6 284/3/6 287/3/6
f 287/3/6 284/3/6 288/3/6
f 289/1/6 290/1/6 294/1/6
f 294/1/6 290/1/6 295/1/6
f 291/1/6 292/1/6 296/1/6
f 296/1/6 292/1/6 297/1/6
f 293/3/6 294/3/6 299/3/6
f 299/3/6 294/3/6 300/3/6
f 297/3/6 298/3/6 303/3/6
f 303/3/6 298/3/6 304/3/6
f 300/1/6 301/1/6 305/1/6
f 305/1/6 301/1/6 306/1/6
f 302/1/6 303/1/6 307/1/6
f 307/1/6 303/1/6 308/1/6
f 309/3/6 310/3/6 312/3/6
f 312/3/6 310/3/6 313/3/6
f 311/3/6 312/3/6 315/3/6
f 315/3/6 312/3/6 316/3/6
f 313/3/6 314/3/6 317/3/6
f 317/3/6 314/3/6 318/3/6
f 316/3/6 317/3/6 319/3/6
f 319/3/6 317/3/6 320/3/6
f 321/2/6 322/2/6 323/2/6
f 323/2/6 322/2/6 324/2/6
