# MagicaVoxel @ Ephtracy

# group
o 

# material
mtllib powerUp.mtl
usemtl palette

# normals
vn -1 0 0
vn 1 0 0
vn 0 0 1
vn 0 0 -1
vn 0 -1 0
vn 0 1 0

# texcoords
vt 0.751953 0.5
vt 0.814453 0.5
vt 0.908203 0.5
vt 0.916016 0.5
vt 0.974609 0.5

# verts
v -0.5 0.2 -0.1
v -0.5 0.2 -0.2
v -0.5 0.3 0
v -0.5 0.3 -0.1
v -0.5 0.3 -0.2
v -0.5 0.3 -0.3
v -0.5 0.4 0.1
v -0.5 0.4 0
v -0.5 0.4 -0.3
v -0.5 0.4 -0.4
v -0.5 0.5 0.1
v -0.5 0.5 0
v -0.5 0.5 -0.3
v -0.5 0.5 -0.4
v -0.5 0.6 0
v -0.5 0.6 -0.1
v -0.5 0.6 -0.2
v -0.5 0.6 -0.3
v -0.5 0.7 -0.1
v -0.5 0.7 -0.2
v -0.4 0 0.1
v -0.4 0 -0.1
v -0.4 0 -0.2
v -0.4 0 -0.4
v -0.4 0.2 -0.1
v -0.4 0.2 -0.2
v -0.4 0.3 0
v -0.4 0.3 -0.1
v -0.4 0.3 -0.2
v -0.4 0.3 -0.3
v -0.4 0.4 0.1
v -0.4 0.4 0
v -0.4 0.4 -0.3
v -0.4 0.4 -0.4
v -0.4 0.5 0.1
v -0.4 0.5 0
v -0.4 0.5 -0.3
v -0.4 0.5 -0.4
v -0.4 0.6 0
v -0.4 0.6 -0.1
v -0.4 0.6 -0.2
v -0.4 0.6 -0.3
v -0.4 0.7 -0.1
v -0.4 0.7 -0.2
v -0.4 1 0.1
v -0.4 1 -0.1
v -0.4 1 -0.2
v -0.4 1 -0.4
v -0.2 0.2 0.2
v -0.2 0.2 0.1
v -0.2 0.3 0.1
v -0.2 0.3 0
v -0.2 0.4 0.1
v -0.2 0.4 0
v -0.2 0.5 0.1
v -0.2 0.5 0
v -0.2 0.6 0.1
v -0.2 0.6 0
v -0.2 0.6 -0.4
v -0.2 0.6 -0.5
v -0.2 0.8 -0.4
v -0.2 0.8 -0.5
v -0.2 0.9 0.2
v -0.2 0.9 0.1
v -0.1 0.5 -0.4
v -0.1 0.5 -0.5
v -0.1 0.6 -0.4
v -0.1 0.6 -0.5
v -0.1 0.8 -0.4
v -0.1 0.8 -0.5
v -0.1 0.9 -0.4
v -0.1 0.9 -0.5
v 0.1 0.2 -0.4
v 0.1 0.2 -0.5
v 0.1 0.3 -0.3
v 0.1 0.3 -0.4
v 0.1 0.4 -0.3
v 0.1 0.4 -0.4
v 0.1 0.5 -0.3
v 0.1 0.5 -0.4
v 0.1 0.5 -0.5
v 0.1 0.6 0.2
v 0.1 0.6 0.1
v 0.1 0.6 -0.3
v 0.1 0.6 -0.4
v 0.1 0.6 -0.5
v 0.1 0.8 0.2
v 0.1 0.8 0.1
v 0.1 0.8 -0.4
v 0.1 0.8 -0.5
v 0.3 0 0
v 0.3 0 -0.1
v 0.3 0 -0.2
v 0.3 0 -0.3
v 0.3 0.1 0.1
v 0.3 0.1 0
v 0.3 0.1 -0.3
v 0.3 0.1 -0.4
v 0.3 0.2 -0.1
v 0.3 0.2 -0.2
v 0.3 0.3 0
v 0.3 0.3 -0.1
v 0.3 0.3 -0.2
v 0.3 0.3 -0.3
v 0.3 0.4 0.1
v 0.3 0.4 0
v 0.3 0.4 -0.3
v 0.3 0.4 -0.4
v 0.3 0.5 0.1
v 0.3 0.5 0
v 0.3 0.5 -0.3
v 0.3 0.5 -0.4
v 0.3 0.6 0
v 0.3 0.6 -0.1
v 0.3 0.6 -0.2
v 0.3 0.6 -0.3
v 0.3 0.7 -0.1
v 0.3 0.7 -0.2
v 0.3 0.9 0.1
v 0.3 0.9 -0.1
v 0.3 0.9 -0.2
v 0.3 0.9 -0.4
v -0.3 0 0
v -0.3 0 -0.1
v -0.3 0 -0.2
v -0.3 0 -0.3
v -0.3 0.1 0.1
v -0.3 0.1 0
v -0.3 0.1 -0.3
v -0.3 0.1 -0.4
v -0.3 0.2 -0.1
v -0.3 0.2 -0.2
v -0.3 0.3 0
v -0.3 0.3 -0.1
v -0.3 0.3 -0.2
v -0.3 0.3 -0.3
v -0.3 0.4 0.1
v -0.3 0.4 0
v -0.3 0.4 -0.3
v -0.3 0.4 -0.4
v -0.3 0.5 0.1
v -0.3 0.5 0
v -0.3 0.5 -0.3
v -0.3 0.5 -0.4
v -0.3 0.6 0
v -0.3 0.6 -0.1
v -0.3 0.6 -0.2
v -0.3 0.6 -0.3
v -0.3 0.7 -0.1
v -0.3 0.7 -0.2
v -0.3 0.9 0.1
v -0.3 0.9 -0.1
v -0.3 0.9 -0.2
v -0.3 0.9 -0.4
v -0.1 0.2 0.2
v -0.1 0.2 0.1
v -0.1 0.3 0.1
v -0.1 0.3 0
v -0.1 0.4 0.1
v -0.1 0.4 0
v -0.1 0.5 0.2
v -0.1 0.5 0.1
v -0.1 0.5 0
v -0.1 0.6 0.2
v -0.1 0.6 0.1
v -0.1 0.6 0
v -0.1 0.6 -0.4
v -0.1 0.6 -0.5
v -0.1 0.8 0.2
v -0.1 0.8 0.1
v -0.1 0.8 -0.4
v -0.1 0.8 -0.5
v 0.1 0.5 0.2
v 0.1 0.5 0.1
v 0.1 0.6 0.2
v 0.1 0.6 0.1
v 0.1 0.8 0.2
v 0.1 0.8 0.1
v 0.1 0.9 0.2
v 0.1 0.9 0.1
v 0.2 0.2 -0.4
v 0.2 0.2 -0.5
v 0.2 0.3 -0.3
v 0.2 0.3 -0.4
v 0.2 0.4 -0.3
v 0.2 0.4 -0.4
v 0.2 0.5 -0.3
v 0.2 0.5 -0.4
v 0.2 0.6 0.2
v 0.2 0.6 0.1
v 0.2 0.6 -0.3
v 0.2 0.6 -0.4
v 0.2 0.8 0.2
v 0.2 0.8 0.1
v 0.2 0.9 -0.4
v 0.2 0.9 -0.5
v 0.4 0 0.1
v 0.4 0 -0.1
v 0.4 0 -0.2
v 0.4 0 -0.4
v 0.4 0.2 -0.1
v 0.4 0.2 -0.2
v 0.4 0.3 0
v 0.4 0.3 -0.1
v 0.4 0.3 -0.2
v 0.4 0.3 -0.3
v 0.4 0.4 0.1
v 0.4 0.4 0
v 0.4 0.4 -0.3
v 0.4 0.4 -0.4
v 0.4 0.5 0.1
v 0.4 0.5 0
v 0.4 0.5 -0.3
v 0.4 0.5 -0.4
v 0.4 0.6 0
v 0.4 0.6 -0.1
v 0.4 0.6 -0.2
v 0.4 0.6 -0.3
v 0.4 0.7 -0.1
v 0.4 0.7 -0.2
v 0.4 1 0.1
v 0.4 1 -0.1
v 0.4 1 -0.2
v 0.4 1 -0.4
v 0.5 0.2 -0.1
v 0.5 0.2 -0.2
v 0.5 0.3 0
v 0.5 0.3 -0.1
v 0.5 0.3 -0.2
v 0.5 0.3 -0.3
v 0.5 0.4 0.1
v 0.5 0.4 0
v 0.5 0.4 -0.3
v 0.5 0.4 -0.4
v 0.5 0.5 0.1
v 0.5 0.5 0
v 0.5 0.5 -0.3
v 0.5 0.5 -0.4
v 0.5 0.6 0
v 0.5 0.6 -0.1
v 0.5 0.6 -0.2
v 0.5 0.6 -0.3
v 0.5 0.7 -0.1
v 0.5 0.7 -0.2
v -0.2 0.2 0.2
v -0.2 0.9 0.2
v -0.1 0.2 0.2
v -0.1 0.5 0.2
v -0.1 0.6 0.2
v -0.1 0.8 0.2
v 0.1 0.5 0.2
v 0.1 0.6 0.2
v 0.1 0.8 0.2
v 0.1 0.9 0.2
v 0.2 0.6 0.2
v 0.2 0.8 0.2
v -0.5 0.4 0.1
v -0.5 0.5 0.1
v -0.4 0 0.1
v -0.4 0.4 0.1
v -0.4 0.5 0.1
v -0.4 1 0.1
v -0.3 0.1 0.1
v -0.3 0.4 0.1
v -0.3 0.5 0.1
v -0.3 0.9 0.1
v -0.2 0.4 0.1
v -0.2 0.5 0.1
v -0.2 0.9 0.1
v -0.1 0.4 0.1
v -0.1 0.5 0.1
v 0.1 0.5 0.1
v 0.1 0.9 0.1
v 0.3 0.1 0.1
v 0.3 0.4 0.1
v 0.3 0.5 0.1
v 0.3 0.9 0.1
v 0.4 0 0.1
v 0.4 0.4 0.1
v 0.4 0.5 0.1
v 0.4 1 0.1
v 0.5 0.4 0.1
v 0.5 0.5 0.1
v -0.5 0.3 0
v -0.5 0.4 0
v -0.5 0.5 0
v -0.5 0.6 0
v -0.4 0.3 0
v -0.4 0.4 0
v -0.4 0.5 0
v -0.4 0.6 0
v -0.3 0.3 0
v -0.3 0.4 0
v -0.3 0.5 0
v -0.3 0.6 0
v -0.2 0.3 0
v -0.2 0.4 0
v -0.2 0.5 0
v -0.2 0.6 0
v -0.1 0.3 0
v -0.1 0.4 0
v -0.1 0.5 0
v -0.1 0.6 0
v 0.3 0.3 0
v 0.3 0.4 0
v 0.3 0.5 0
v 0.3 0.6 0
v 0.4 0.3 0
v 0.4 0.4 0
v 0.4 0.5 0
v 0.4 0.6 0
v 0.5 0.3 0
v 0.5 0.4 0
v 0.5 0.5 0
v 0.5 0.6 0
v -0.5 0.2 -0.1
v -0.5 0.3 -0.1
v -0.5 0.6 -0.1
v -0.5 0.7 -0.1
v -0.4 0.2 -0.1
v -0.4 0.3 -0.1
v -0.4 0.6 -0.1
v -0.4 0.7 -0.1
v -0.3 0 -0.1
v -0.3 0.2 -0.1
v -0.3 0.3 -0.1
v -0.3 0.6 -0.1
v -0.3 0.7 -0.1
v -0.3 0.9 -0.1
v 0.3 0 -0.1
v 0.3 0.2 -0.1
v 0.3 0.3 -0.1
v 0.3 0.6 -0.1
v 0.3 0.7 -0.1
v 0.3 0.9 -0.1
v 0.4 0.2 -0.1
v 0.4 0.3 -0.1
v 0.4 0.6 -0.1
v 0.4 0.7 -0.1
v 0.5 0.2 -0.1
v 0.5 0.3 -0.1
v 0.5 0.6 -0.1
v 0.5 0.7 -0.1
v -0.3 0 -0.3
v -0.3 0.1 -0.3
v 0.3 0 -0.3
v 0.3 0.1 -0.3
v -0.2 0.6 -0.4
v -0.2 0.8 -0.4
v -0.1 0.5 -0.4
v -0.1 0.6 -0.4
v -0.1 0.8 -0.4
v -0.1 0.9 -0.4
v 0.1 0.2 -0.4
v 0.1 0.3 -0.4
v 0.1 0.5 -0.4
v 0.1 0.6 -0.4
v 0.1 0.8 -0.4
v 0.2 0.2 -0.4
v 0.2 0.3 -0.4
v 0.2 0.6 -0.4
v 0.2 0.9 -0.4
v -0.2 0.2 0.1
v -0.2 0.3 0.1
v -0.2 0.6 0.1
v -0.2 0.9 0.1
v -0.1 0.2 0.1
v -0.1 0.3 0.1
v -0.1 0.5 0.1
v -0.1 0.6 0.1
v -0.1 0.8 0.1
v 0.1 0.5 0.1
v 0.1 0.6 0.1
v 0.1 0.8 0.1
v 0.1 0.9 0.1
v 0.2 0.6 0.1
v 0.2 0.8 0.1
v -0.3 0 0
v -0.3 0.1 0
v 0.3 0 0
v 0.3 0.1 0
v -0.5 0.2 -0.2
v -0.5 0.3 -0.2
v -0.5 0.6 -0.2
v -0.5 0.7 -0.2
v -0.4 0.2 -0.2
v -0.4 0.3 -0.2
v -0.4 0.6 -0.2
v -0.4 0.7 -0.2
v -0.3 0 -0.2
v -0.3 0.2 -0.2
v -0.3 0.3 -0.2
v -0.3 0.6 -0.2
v -0.3 0.7 -0.2
v -0.3 0.9 -0.2
v 0.3 0 -0.2
v 0.3 0.2 -0.2
v 0.3 0.3 -0.2
v 0.3 0.6 -0.2
v 0.3 0.7 -0.2
v 0.3 0.9 -0.2
v 0.4 0.2 -0.2
v 0.4 0.3 -0.2
v 0.4 0.6 -0.2
v 0.4 0.7 -0.2
v 0.5 0.2 -0.2
v 0.5 0.3 -0.2
v 0.5 0.6 -0.2
v 0.5 0.7 -0.2
v -0.5 0.3 -0.3
v -0.5 0.4 -0.3
v -0.5 0.5 -0.3
v -0.5 0.6 -0.3
v -0.4 0.3 -0.3
v -0.4 0.4 -0.3
v -0.4 0.5 -0.3
v -0.4 0.6 -0.3
v -0.3 0.3 -0.3
v -0.3 0.4 -0.3
v -0.3 0.5 -0.3
v -0.3 0.6 -0.3
v 0.1 0.3 -0.3
v 0.1 0.4 -0.3
v 0.1 0.5 -0.3
v 0.1 0.6 -0.3
v 0.2 0.3 -0.3
v 0.2 0.4 -0.3
v 0.2 0.5 -0.3
v 0.2 0.6 -0.3
v 0.3 0.3 -0.3
v 0.3 0.4 -0.3
v 0.3 0.5 -0.3
v 0.3 0.6 -0.3
v 0.4 0.3 -0.3
v 0.4 0.4 -0.3
v 0.4 0.5 -0.3
v 0.4 0.6 -0.3
v 0.5 0.3 -0.3
v 0.5 0.4 -0.3
v 0.5 0.5 -0.3
v 0.5 0.6 -0.3
v -0.5 0.4 -0.4
v -0.5 0.5 -0.4
v -0.4 0 -0.4
v -0.4 0.4 -0.4
v -0.4 0.5 -0.4
v -0.4 1 -0.4
v -0.3 0.1 -0.4
v -0.3 0.4 -0.4
v -0.3 0.5 -0.4
v -0.3 0.9 -0.4
v -0.1 0.5 -0.4
v -0.1 0.9 -0.4
v 0.1 0.4 -0.4
v 0.1 0.5 -0.4
v 0.2 0.4 -0.4
v 0.2 0.5 -0.4
v 0.2 0.9 -0.4
v 0.3 0.1 -0.4
v 0.3 0.4 -0.4
v 0.3 0.5 -0.4
v 0.3 0.9 -0.4
v 0.4 0 -0.4
v 0.4 0.4 -0.4
v 0.4 0.5 -0.4
v 0.4 1 -0.4
v 0.5 0.4 -0.4
v 0.5 0.5 -0.4
v -0.2 0.6 -0.5
v -0.2 0.8 -0.5
v -0.1 0.5 -0.5
v -0.1 0.6 -0.5
v -0.1 0.8 -0.5
v -0.1 0.9 -0.5
v 0.1 0.2 -0.5
v 0.1 0.5 -0.5
v 0.1 0.6 -0.5
v 0.1 0.8 -0.5
v 0.2 0.2 -0.5
v 0.2 0.9 -0.5
v -0.4 0 0.1
v 0.4 0 0.1
v -0.3 0 0
v 0.3 0 0
v -0.4 0 -0.1
v -0.3 0 -0.1
v 0.3 0 -0.1
v 0.4 0 -0.1
v -0.4 0 -0.2
v -0.3 0 -0.2
v 0.3 0 -0.2
v 0.4 0 -0.2
v -0.3 0 -0.3
v 0.3 0 -0.3
v -0.4 0 -0.4
v 0.4 0 -0.4
v -0.2 0.2 0.2
v -0.1 0.2 0.2
v -0.2 0.2 0.1
v -0.1 0.2 0.1
v -0.5 0.2 -0.1
v -0.4 0.2 -0.1
v 0.4 0.2 -0.1
v 0.5 0.2 -0.1
v -0.5 0.2 -0.2
v -0.4 0.2 -0.2
v 0.4 0.2 -0.2
v 0.5 0.2 -0.2
v 0.1 0.2 -0.4
v 0.2 0.2 -0.4
v 0.1 0.2 -0.5
v 0.2 0.2 -0.5
v -0.2 0.3 0.1
v -0.1 0.3 0.1
v -0.5 0.3 0
v -0.4 0.3 0
v -0.3 0.3 0
v -0.2 0.3 0
v -0.1 0.3 0
v 0.3 0.3 0
v 0.4 0.3 0
v 0.5 0.3 0
v -0.5 0.3 -0.1
v -0.4 0.3 -0.1
v -0.3 0.3 -0.1
v 0.3 0.3 -0.1
v 0.4 0.3 -0.1
v 0.5 0.3 -0.1
v -0.5 0.3 -0.2
v -0.4 0.3 -0.2
v -0.3 0.3 -0.2
v 0.3 0.3 -0.2
v 0.4 0.3 -0.2
v 0.5 0.3 -0.2
v -0.5 0.3 -0.3
v -0.4 0.3 -0.3
v -0.3 0.3 -0.3
v 0.1 0.3 -0.3
v 0.2 0.3 -0.3
v 0.3 0.3 -0.3
v 0.4 0.3 -0.3
v 0.5 0.3 -0.3
v 0.1 0.3 -0.4
v 0.2 0.3 -0.4
v -0.5 0.4 0.1
v -0.4 0.4 0.1
v -0.3 0.4 0.1
v -0.2 0.4 0.1
v -0.1 0.4 0.1
v 0.3 0.4 0.1
v 0.4 0.4 0.1
v 0.5 0.4 0.1
v -0.5 0.4 0
v -0.4 0.4 0
v -0.3 0.4 0
v -0.2 0.4 0
v -0.1 0.4 0
v 0.3 0.4 0
v 0.4 0.4 0
v 0.5 0.4 0
v -0.5 0.4 -0.3
v -0.4 0.4 -0.3
v -0.3 0.4 -0.3
v 0.1 0.4 -0.3
v 0.2 0.4 -0.3
v 0.3 0.4 -0.3
v 0.4 0.4 -0.3
v 0.5 0.4 -0.3
v -0.5 0.4 -0.4
v -0.4 0.4 -0.4
v -0.3 0.4 -0.4
v 0.1 0.4 -0.4
v 0.2 0.4 -0.4
v 0.3 0.4 -0.4
v 0.4 0.4 -0.4
v 0.5 0.4 -0.4
v -0.1 0.5 0.2
v 0.1 0.5 0.2
v -0.1 0.5 0.1
v 0.1 0.5 0.1
v -0.1 0.5 -0.4
v 0.1 0.5 -0.4
v -0.1 0.5 -0.5
v 0.1 0.5 -0.5
v 0.1 0.6 0.2
v 0.2 0.6 0.2
v 0.1 0.6 0.1
v 0.2 0.6 0.1
v -0.2 0.6 -0.4
v -0.1 0.6 -0.4
v -0.2 0.6 -0.5
v -0.1 0.6 -0.5
v -0.1 0.8 0.2
v 0.1 0.8 0.2
v -0.1 0.8 0.1
v 0.1 0.8 0.1
v -0.1 0.8 -0.4
v 0.1 0.8 -0.4
v -0.1 0.8 -0.5
v 0.1 0.8 -0.5
v -0.3 0.9 0.1
v -0.2 0.9 0.1
v 0.1 0.9 0.1
v 0.3 0.9 0.1
v -0.3 0.9 -0.1
v 0.3 0.9 -0.1
v -0.3 0.9 -0.2
v 0.3 0.9 -0.2
v -0.3 0.9 -0.4
v -0.1 0.9 -0.4
v 0.2 0.9 -0.4
v 0.3 0.9 -0.4
v -0.3 0.1 0.1
v 0.3 0.1 0.1
v -0.3 0.1 0
v 0.3 0.1 0
v -0.3 0.1 -0.3
v 0.3 0.1 -0.3
v -0.3 0.1 -0.4
v 0.3 0.1 -0.4
v -0.5 0.5 0.1
v -0.4 0.5 0.1
v -0.3 0.5 0.1
v -0.2 0.5 0.1
v -0.1 0.5 0.1
v 0.1 0.5 0.1
v 0.3 0.5 0.1
v 0.4 0.5 0.1
v 0.5 0.5 0.1
v -0.5 0.5 0
v -0.4 0.5 0
v -0.3 0.5 0
v -0.2 0.5 0
v -0.1 0.5 0
v 0.3 0.5 0
v 0.4 0.5 0
v 0.5 0.5 0
v -0.5 0.5 -0.3
v -0.4 0.5 -0.3
v -0.3 0.5 -0.3
v 0.1 0.5 -0.3
v 0.2 0.5 -0.3
v 0.3 0.5 -0.3
v 0.4 0.5 -0.3
v 0.5 0.5 -0.3
v -0.5 0.5 -0.4
v -0.4 0.5 -0.4
v -0.3 0.5 -0.4
v -0.1 0.5 -0.4
v 0.1 0.5 -0.4
v 0.2 0.5 -0.4
v 0.3 0.5 -0.4
v 0.4 0.5 -0.4
v 0.5 0.5 -0.4
v -0.1 0.6 0.2
v 0.1 0.6 0.2
v -0.2 0.6 0.1
v -0.1 0.6 0.1
v 0.1 0.6 0.1
v -0.5 0.6 0
v -0.4 0.6 0
v -0.3 0.6 0
v -0.2 0.6 0
v -0.1 0.6 0
v 0.3 0.6 0
v 0.4 0.6 0
v 0.5 0.6 0
v -0.5 0.6 -0.1
v -0.4 0.6 -0.1
v -0.3 0.6 -0.1
v 0.3 0.6 -0.1
v 0.4 0.6 -0.1
v 0.5 0.6 -0.1
v -0.5 0.6 -0.2
v -0.4 0.6 -0.2
v -0.3 0.6 -0.2
v 0.3 0.6 -0.2
v 0.4 0.6 -0.2
v 0.5 0.6 -0.2
v -0.5 0.6 -0.3
v -0.4 0.6 -0.3
v -0.3 0.6 -0.3
v 0.1 0.6 -0.3
v 0.2 0.6 -0.3
v 0.3 0.6 -0.3
v 0.4 0.6 -0.3
v 0.5 0.6 -0.3
v -0.1 0.6 -0.4
v 0.1 0.6 -0.4
v 0.2 0.6 -0.4
v -0.1 0.6 -0.5
v 0.1 0.6 -0.5
v -0.5 0.7 -0.1
v -0.4 0.7 -0.1
v 0.4 0.7 -0.1
v 0.5 0.7 -0.1
v -0.5 0.7 -0.2
v -0.4 0.7 -0.2
v 0.4 0.7 -0.2
v 0.5 0.7 -0.2
v 0.1 0.8 0.2
v 0.2 0.8 0.2
v 0.1 0.8 0.1
v 0.2 0.8 0.1
v -0.2 0.8 -0.4
v -0.1 0.8 -0.4
v -0.2 0.8 -0.5
v -0.1 0.8 -0.5
v -0.2 0.9 0.2
v 0.1 0.9 0.2
v -0.2 0.9 0.1
v 0.1 0.9 0.1
v -0.1 0.9 -0.4
v 0.2 0.9 -0.4
v -0.1 0.9 -0.5
v 0.2 0.9 -0.5
v -0.4 1 0.1
v 0.4 1 0.1
v -0.4 1 -0.1
v 0.4 1 -0.1
v -0.4 1 -0.2
v 0.4 1 -0.2
v -0.4 1 -0.4
v 0.4 1 -0.4

# faces
f 4/1/1 2/1/1 1/1/1
f 5/1/1 2/1/1 4/1/1
f 8/4/1 4/4/1 3/4/1
f 9/4/1 6/4/1 5/4/1
f 11/4/1 8/4/1 7/4/1
f 12/4/1 4/4/1 8/4/1
f 12/4/1 8/4/1 11/4/1
f 13/4/1 10/4/1 9/4/1
f 13/4/1 9/4/1 5/4/1
f 14/4/1 10/4/1 13/4/1
f 15/4/1 4/4/1 12/4/1
f 16/1/1 5/1/1 4/1/1
f 16/4/1 4/4/1 15/4/1
f 17/4/1 13/4/1 5/4/1
f 17/1/1 5/1/1 16/1/1
f 18/4/1 13/4/1 17/4/1
f 19/1/1 17/1/1 16/1/1
f 20/1/1 17/1/1 19/1/1
f 25/3/1 22/3/1 21/3/1
f 25/5/1 23/5/1 22/5/1
f 26/3/1 24/3/1 23/3/1
f 26/5/1 23/5/1 25/5/1
f 27/3/1 25/3/1 21/3/1
f 28/3/1 25/3/1 27/3/1
f 29/3/1 24/3/1 26/3/1
f 30/3/1 24/3/1 29/3/1
f 31/3/1 27/3/1 21/3/1
f 32/3/1 27/3/1 31/3/1
f 33/3/1 24/3/1 30/3/1
f 34/3/1 24/3/1 33/3/1
f 39/3/1 36/3/1 35/3/1
f 42/3/1 38/3/1 37/3/1
f 43/3/1 40/3/1 39/3/1
f 44/3/1 42/3/1 41/3/1
f 45/3/1 43/3/1 39/3/1
f 45/3/1 39/3/1 35/3/1
f 46/5/1 44/5/1 43/5/1
f 46/3/1 43/3/1 45/3/1
f 47/3/1 42/3/1 44/3/1
f 47/5/1 44/5/1 46/5/1
f 48/3/1 38/3/1 42/3/1
f 48/3/1 42/3/1 47/3/1
f 51/2/1 50/2/1 49/2/1
f 53/2/1 51/2/1 49/2/1
f 53/2/1 52/2/1 51/2/1
f 54/2/1 52/2/1 53/2/1
f 55/2/1 53/2/1 49/2/1
f 57/2/1 55/2/1 49/2/1
f 57/2/1 56/2/1 55/2/1
f 58/2/1 56/2/1 57/2/1
f 61/2/1 60/2/1 59/2/1
f 62/2/1 60/2/1 61/2/1
f 63/2/1 57/2/1 49/2/1
f 64/2/1 57/2/1 63/2/1
f 67/2/1 66/2/1 65/2/1
f 68/2/1 66/2/1 67/2/1
f 71/2/1 70/2/1 69/2/1
f 72/2/1 70/2/1 71/2/1
f 76/2/1 74/2/1 73/2/1
f 77/2/1 76/2/1 75/2/1
f 78/2/1 74/2/1 76/2/1
f 78/2/1 76/2/1 77/2/1
f 80/2/1 74/2/1 78/2/1
f 81/2/1 74/2/1 80/2/1
f 84/2/1 80/2/1 79/2/1
f 85/2/1 80/2/1 84/2/1
f 87/2/1 83/2/1 82/2/1
f 88/2/1 83/2/1 87/2/1
f 89/2/1 86/2/1 85/2/1
f 90/2/1 86/2/1 89/2/1
f 96/3/1 92/3/1 91/3/1
f 97/3/1 94/3/1 93/3/1
f 99/3/1 96/3/1 95/3/1
f 99/3/1 92/3/1 96/3/1
f 100/3/1 98/3/1 97/3/1
f 100/3/1 97/3/1 93/3/1
f 101/3/1 99/3/1 95/3/1
f 102/3/1 99/3/1 101/3/1
f 103/3/1 98/3/1 100/3/1
f 104/3/1 98/3/1 103/3/1
f 105/3/1 101/3/1 95/3/1
f 106/3/1 101/3/1 105/3/1
f 107/3/1 98/3/1 104/3/1
f 108/3/1 98/3/1 107/3/1
f 113/3/1 110/3/1 109/3/1
f 116/3/1 112/3/1 111/3/1
f 117/3/1 114/3/1 113/3/1
f 118/3/1 116/3/1 115/3/1
f 119/3/1 117/3/1 113/3/1
f 119/3/1 113/3/1 109/3/1
f 120/3/1 117/3/1 119/3/1
f 121/3/1 116/3/1 118/3/1
f 122/3/1 112/3/1 116/3/1
f 122/3/1 116/3/1 121/3/1
f 123/3/2 124/3/2 128/3/2
f 125/3/2 126/3/2 129/3/2
f 127/3/2 128/3/2 131/3/2
f 128/3/2 124/3/2 131/3/2
f 129/3/2 130/3/2 132/3/2
f 125/3/2 129/3/2 132/3/2
f 127/3/2 131/3/2 133/3/2
f 133/3/2 131/3/2 134/3/2
f 132/3/2 130/3/2 135/3/2
f 135/3/2 130/3/2 136/3/2
f 127/3/2 133/3/2 137/3/2
f 137/3/2 133/3/2 138/3/2
f 136/3/2 130/3/2 139/3/2
f 139/3/2 130/3/2 140/3/2
f 141/3/2 142/3/2 145/3/2
f 143/3/2 144/3/2 148/3/2
f 145/3/2 146/3/2 149/3/2
f 147/3/2 148/3/2 150/3/2
f 145/3/2 149/3/2 151/3/2
f 141/3/2 145/3/2 151/3/2
f 151/3/2 149/3/2 152/3/2
f 150/3/2 148/3/2 153/3/2
f 148/3/2 144/3/2 154/3/2
f 153/3/2 148/3/2 154/3/2
f 155/2/2 156/2/2 157/2/2
f 155/2/2 157/2/2 159/2/2
f 157/2/2 158/2/2 159/2/2
f 159/2/2 158/2/2 160/2/2
f 155/2/2 159/2/2 161/2/2
f 161/2/2 159/2/2 162/2/2
f 162/2/2 163/2/2 165/2/2
f 165/2/2 163/2/2 166/2/2
f 164/2/2 165/2/2 169/2/2
f 169/2/2 165/2/2 170/2/2
f 167/2/2 168/2/2 171/2/2
f 171/2/2 168/2/2 172/2/2
f 173/2/2 174/2/2 175/2/2
f 175/2/2 174/2/2 176/2/2
f 177/2/2 178/2/2 179/2/2
f 179/2/2 178/2/2 180/2/2
f 181/2/2 182/2/2 184/2/2
f 183/2/2 184/2/2 185/2/2
f 184/2/2 182/2/2 186/2/2
f 185/2/2 184/2/2 186/2/2
f 186/2/2 182/2/2 188/2/2
f 187/2/2 188/2/2 191/2/2
f 188/2/2 182/2/2 192/2/2
f 191/2/2 188/2/2 192/2/2
f 189/2/2 190/2/2 193/2/2
f 193/2/2 190/2/2 194/2/2
f 192/2/2 182/2/2 195/2/2
f 195/2/2 182/2/2 196/2/2
f 197/3/2 198/3/2 201/3/2
f 198/5/2 199/5/2 201/5/2
f 199/3/2 200/3/2 202/3/2
f 201/5/2 199/5/2 202/5/2
f 197/3/2 201/3/2 203/3/2
f 203/3/2 201/3/2 204/3/2
f 202/3/2 200/3/2 205/3/2
f 205/3/2 200/3/2 206/3/2
f 197/3/2 203/3/2 207/3/2
f 207/3/2 203/3/2 208/3/2
f 206/3/2 200/3/2 209/3/2
f 209/3/2 200/3/2 210/3/2
f 211/3/2 212/3/2 215/3/2
f 213/3/2 214/3/2 218/3/2
f 215/3/2 216/3/2 219/3/2
f 217/3/2 218/3/2 220/3/2
f 215/3/2 219/3/2 221/3/2
f 211/3/2 215/3/2 221/3/2
f 219/5/2 220/5/2 222/5/2
f 221/3/2 219/3/2 222/3/2
f 220/3/2 218/3/2 223/3/2
f 222/5/2 220/5/2 223/5/2
f 218/3/2 214/3/2 224/3/2
f 223/3/2 218/3/2 224/3/2
f 225/1/2 226/1/2 228/1/2
f 228/1/2 226/1/2 229/1/2
f 227/4/2 228/4/2 232/4/2
f 229/4/2 230/4/2 233/4/2
f 231/4/2 232/4/2 235/4/2
f 232/4/2 228/4/2 236/4/2
f 235/4/2 232/4/2 236/4/2
f 233/4/2 234/4/2 237/4/2
f 229/4/2 233/4/2 237/4/2
f 237/4/2 234/4/2 238/4/2
f 236/4/2 228/4/2 239/4/2
f 228/1/2 229/1/2 240/1/2
f 239/4/2 228/4/2 240/4/2
f 229/4/2 237/4/2 241/4/2
f 240/1/2 229/1/2 241/1/2
f 241/4/2 237/4/2 242/4/2
f 240/1/2 241/1/2 243/1/2
f 243/1/2 241/1/2 244/1/2
f 247/2/3 246/2/3 245/2/3
f 248/2/3 246/2/3 247/2/3
f 249/2/3 246/2/3 248/2/3
f 250/2/3 246/2/3 249/2/3
f 251/2/3 249/2/3 248/2/3
f 252/2/3 249/2/3 251/2/3
f 253/2/3 246/2/3 250/2/3
f 254/2/3 246/2/3 253/2/3
f 255/2/3 253/2/3 252/2/3
f 256/2/3 253/2/3 255/2/3
f 260/4/3 258/4/3 257/4/3
f 261/4/3 258/4/3 260/4/3
f 263/3/3 260/3/3 259/3/3
f 263/3/3 262/3/3 261/3/3
f 263/3/3 261/3/3 260/3/3
f 264/3/3 262/3/3 263/3/3
f 265/3/3 262/3/3 264/3/3
f 266/3/3 262/3/3 265/3/3
f 267/4/3 265/4/3 264/4/3
f 268/4/3 265/4/3 267/4/3
f 269/3/3 262/3/3 266/3/3
f 272/4/3 271/4/3 270/4/3
f 273/3/3 262/3/3 269/3/3
f 274/3/3 263/3/3 259/3/3
f 275/4/3 272/4/3 270/4/3
f 276/4/3 272/4/3 275/4/3
f 277/3/3 262/3/3 273/3/3
f 278/3/3 274/3/3 259/3/3
f 278/3/3 275/3/3 274/3/3
f 279/4/3 276/4/3 275/4/3
f 279/3/3 275/3/3 278/3/3
f 280/3/3 277/3/3 276/3/3
f 280/4/3 276/4/3 279/4/3
f 281/3/3 262/3/3 277/3/3
f 281/3/3 277/3/3 280/3/3
f 282/4/3 280/4/3 279/4/3
f 283/4/3 280/4/3 282/4/3
f 288/4/3 285/4/3 284/4/3
f 289/4/3 285/4/3 288/4/3
f 290/4/3 287/4/3 286/4/3
f 291/4/3 287/4/3 290/4/3
f 296/4/3 293/4/3 292/4/3
f 297/4/3 293/4/3 296/4/3
f 298/4/3 295/4/3 294/4/3
f 299/4/3 295/4/3 298/4/3
f 304/4/3 301/4/3 300/4/3
f 305/4/3 301/4/3 304/4/3
f 306/4/3 303/4/3 302/4/3
f 307/4/3 303/4/3 306/4/3
f 312/4/3 309/4/3 308/4/3
f 313/4/3 309/4/3 312/4/3
f 314/4/3 311/4/3 310/4/3
f 315/4/3 311/4/3 314/4/3
f 320/1/3 317/1/3 316/1/3
f 321/1/3 317/1/3 320/1/3
f 322/1/3 319/1/3 318/1/3
f 323/1/3 319/1/3 322/1/3
f 330/5/3 325/5/3 324/5/3
f 331/1/3 326/1/3 325/1/3
f 331/5/3 325/5/3 330/5/3
f 332/1/3 326/1/3 331/1/3
f 333/1/3 328/1/3 327/1/3
f 334/5/3 329/5/3 328/5/3
f 334/1/3 328/1/3 333/1/3
f 335/5/3 329/5/3 334/5/3
f 340/1/3 337/1/3 336/1/3
f 341/1/3 337/1/3 340/1/3
f 342/1/3 339/1/3 338/1/3
f 343/1/3 339/1/3 342/1/3
f 346/3/3 345/3/3 344/3/3
f 347/3/3 345/3/3 346/3/3
f 351/2/3 349/2/3 348/2/3
f 352/2/3 349/2/3 351/2/3
f 356/2/3 351/2/3 350/2/3
f 357/2/3 351/2/3 356/2/3
f 358/2/3 353/2/3 352/2/3
f 359/2/3 355/2/3 354/2/3
f 360/2/3 355/2/3 359/2/3
f 361/2/3 358/2/3 357/2/3
f 362/2/3 353/2/3 358/2/3
f 362/2/3 358/2/3 361/2/3
f 363/2/4 364/2/4 367/2/4
f 367/2/4 364/2/4 368/2/4
f 365/2/4 366/2/4 370/2/4
f 370/2/4 366/2/4 371/2/4
f 369/2/4 370/2/4 372/2/4
f 372/2/4 370/2/4 373/2/4
f 371/2/4 366/2/4 374/2/4
f 374/2/4 366/2/4 375/2/4
f 373/2/4 374/2/4 376/2/4
f 376/2/4 374/2/4 377/2/4
f 378/3/4 379/3/4 380/3/4
f 380/3/4 379/3/4 381/3/4
f 382/1/4 383/1/4 386/1/4
f 386/1/4 383/1/4 387/1/4
f 384/1/4 385/1/4 388/1/4
f 388/1/4 385/1/4 389/1/4
f 390/5/4 391/5/4 396/5/4
f 391/1/4 392/1/4 397/1/4
f 396/5/4 391/5/4 397/5/4
f 397/1/4 392/1/4 398/1/4
f 393/1/4 394/1/4 399/1/4
f 394/5/4 395/5/4 400/5/4
f 399/1/4 394/1/4 400/1/4
f 400/5/4 395/5/4 401/5/4
f 402/1/4 403/1/4 406/1/4
f 406/1/4 403/1/4 407/1/4
f 404/1/4 405/1/4 408/1/4
f 408/1/4 405/1/4 409/1/4
f 410/4/4 411/4/4 414/4/4
f 414/4/4 411/4/4 415/4/4
f 412/4/4 413/4/4 416/4/4
f 416/4/4 413/4/4 417/4/4
f 418/4/4 419/4/4 422/4/4
f 422/4/4 419/4/4 423/4/4
f 420/4/4 421/4/4 424/4/4
f 424/4/4 421/4/4 425/4/4
f 426/4/4 427/4/4 430/4/4
f 430/4/4 427/4/4 431/4/4
f 428/4/4 429/4/4 432/4/4
f 432/4/4 429/4/4 433/4/4
f 434/4/4 435/4/4 438/4/4
f 438/4/4 435/4/4 439/4/4
f 436/4/4 437/4/4 440/4/4
f 440/4/4 437/4/4 441/4/4
f 442/4/4 443/4/4 445/4/4
f 445/4/4 443/4/4 446/4/4
f 444/3/4 445/3/4 448/3/4
f 445/4/4 446/4/4 449/4/4
f 448/3/4 445/3/4 449/3/4
f 446/3/4 447/3/4 450/3/4
f 449/4/4 446/4/4 450/4/4
f 450/3/4 447/3/4 451/3/4
f 449/4/4 450/4/4 452/4/4
f 451/3/4 447/3/4 453/3/4
f 449/4/4 452/4/4 454/4/4
f 454/4/4 452/4/4 455/4/4
f 453/3/4 447/3/4 458/3/4
f 444/3/4 448/3/4 459/3/4
f 456/4/4 457/4/4 460/4/4
f 460/4/4 457/4/4 461/4/4
f 458/3/4 447/3/4 462/3/4
f 444/3/4 459/3/4 463/3/4
f 459/3/4 460/3/4 463/3/4
f 460/4/4 461/4/4 464/4/4
f 463/3/4 460/3/4 464/3/4
f 461/3/4 462/3/4 465/3/4
f 464/4/4 461/4/4 465/4/4
f 462/3/4 447/3/4 466/3/4
f 465/3/4 462/3/4 466/3/4
f 464/4/4 465/4/4 467/4/4
f 467/4/4 465/4/4 468/4/4
f 469/2/4 470/2/4 472/2/4
f 472/2/4 470/2/4 473/2/4
f 471/2/4 472/2/4 476/2/4
f 476/2/4 472/2/4 477/2/4
f 473/2/4 474/2/4 478/2/4
f 476/2/4 477/2/4 479/2/4
f 477/2/4 478/2/4 479/2/4
f 475/2/4 476/2/4 479/2/4
f 478/2/4 474/2/4 480/2/4
f 479/2/4 478/2/4 480/2/4
f 483/3/5 482/3/5 481/3/5
f 484/3/5 482/3/5 483/3/5
f 485/3/5 483/3/5 481/3/5
f 486/3/5 483/3/5 485/3/5
f 487/3/5 482/3/5 484/3/5
f 488/3/5 482/3/5 487/3/5
f 489/5/5 486/5/5 485/5/5
f 489/5/5 487/5/5 486/5/5
f 489/5/5 488/5/5 487/5/5
f 490/5/5 488/5/5 489/5/5
f 491/5/5 488/5/5 490/5/5
f 492/5/5 488/5/5 491/5/5
f 493/3/5 490/3/5 489/3/5
f 494/3/5 492/3/5 491/3/5
f 495/3/5 493/3/5 489/3/5
f 495/3/5 494/3/5 493/3/5
f 496/3/5 492/3/5 494/3/5
f 496/3/5 494/3/5 495/3/5
f 499/2/5 498/2/5 497/2/5
f 500/2/5 498/2/5 499/2/5
f 505/1/5 502/1/5 501/1/5
f 506/1/5 502/1/5 505/1/5
f 507/1/5 504/1/5 503/1/5
f 508/1/5 504/1/5 507/1/5
f 511/2/5 510/2/5 509/2/5
f 512/2/5 510/2/5 511/2/5
f 518/2/5 514/2/5 513/2/5
f 519/2/5 514/2/5 518/2/5
f 523/4/5 516/4/5 515/4/5
f 524/4/5 516/4/5 523/4/5
f 525/4/5 518/4/5 517/4/5
f 525/4/5 519/4/5 518/4/5
f 525/4/5 520/4/5 519/4/5
f 526/4/5 520/4/5 525/4/5
f 527/4/5 522/4/5 521/4/5
f 528/4/5 522/4/5 527/4/5
f 535/4/5 530/4/5 529/4/5
f 536/4/5 530/4/5 535/4/5
f 537/4/5 532/4/5 531/4/5
f 538/4/5 532/4/5 537/4/5
f 539/4/5 532/4/5 538/4/5
f 540/4/5 532/4/5 539/4/5
f 541/4/5 534/4/5 533/4/5
f 542/4/5 534/4/5 541/4/5
f 543/2/5 539/2/5 538/2/5
f 544/2/5 539/2/5 543/2/5
f 553/4/5 546/4/5 545/4/5
f 554/4/5 546/4/5 553/4/5
f 555/4/5 548/4/5 547/4/5
f 556/4/5 548/4/5 555/4/5
f 557/4/5 550/4/5 549/4/5
f 558/4/5 550/4/5 557/4/5
f 559/4/5 552/4/5 551/4/5
f 560/4/5 552/4/5 559/4/5
f 569/4/5 562/4/5 561/4/5
f 570/4/5 562/4/5 569/4/5
f 571/4/5 564/4/5 563/4/5
f 572/4/5 564/4/5 571/4/5
f 573/4/5 566/4/5 565/4/5
f 574/4/5 566/4/5 573/4/5
f 575/4/5 568/4/5 567/4/5
f 576/4/5 568/4/5 575/4/5
f 579/2/5 578/2/5 577/2/5
f 580/2/5 578/2/5 579/2/5
f 583/2/5 582/2/5 581/2/5
f 584/2/5 582/2/5 583/2/5
f 587/2/5 586/2/5 585/2/5
f 588/2/5 586/2/5 587/2/5
f 591/2/5 590/2/5 589/2/5
f 592/2/5 590/2/5 591/2/5
f 595/2/5 594/2/5 593/2/5
f 596/2/5 594/2/5 595/2/5
f 599/2/5 598/2/5 597/2/5
f 600/2/5 598/2/5 599/2/5
f 605/3/5 602/3/5 601/3/5
f 605/3/5 604/3/5 603/3/5
f 605/3/5 603/3/5 602/3/5
f 606/3/5 604/3/5 605/3/5
f 609/3/5 608/3/5 607/3/5
f 610/3/5 608/3/5 609/3/5
f 611/3/5 608/3/5 610/3/5
f 612/3/5 608/3/5 611/3/5
f 613/3/6 614/3/6 615/3/6
f 615/3/6 614/3/6 616/3/6
f 617/3/6 618/3/6 619/3/6
f 619/3/6 618/3/6 620/3/6
f 621/4/6 622/4/6 630/4/6
f 630/4/6 622/4/6 631/4/6
f 623/4/6 624/4/6 632/4/6
f 632/4/6 624/4/6 633/4/6
f 625/4/6 626/4/6 634/4/6
f 626/4/6 627/4/6 634/4/6
f 634/4/6 627/4/6 635/4/6
f 628/4/6 629/4/6 636/4/6
f 636/4/6 629/4/6 637/4/6
f 638/4/6 639/4/6 646/4/6
f 646/4/6 639/4/6 647/4/6
f 640/4/6 641/4/6 648/4/6
f 648/4/6 641/4/6 649/4/6
f 649/4/6 641/4/6 650/4/6
f 642/4/6 643/4/6 651/4/6
f 651/4/6 643/4/6 652/4/6
f 644/4/6 645/4/6 653/4/6
f 653/4/6 645/4/6 654/4/6
f 655/2/6 656/2/6 658/2/6
f 658/2/6 656/2/6 659/2/6
f 657/2/6 658/2/6 663/2/6
f 663/2/6 658/2/6 664/2/6
f 660/4/6 661/4/6 668/4/6
f 668/4/6 661/4/6 669/4/6
f 663/4/6 664/4/6 670/4/6
f 662/4/6 663/4/6 670/4/6
f 664/4/6 665/4/6 670/4/6
f 670/4/6 665/4/6 671/4/6
f 666/4/6 667/4/6 672/4/6
f 672/4/6 667/4/6 673/4/6
f 674/4/6 675/4/6 680/4/6
f 680/4/6 675/4/6 681/4/6
f 676/4/6 677/4/6 682/4/6
f 682/4/6 677/4/6 683/4/6
f 683/4/6 677/4/6 684/4/6
f 684/4/6 677/4/6 685/4/6
f 678/4/6 679/4/6 686/4/6
f 686/4/6 679/4/6 687/4/6
f 683/2/6 684/2/6 689/2/6
f 689/2/6 684/2/6 690/2/6
f 688/2/6 689/2/6 691/2/6
f 691/2/6 689/2/6 692/2/6
f 693/1/6 694/1/6 697/1/6
f 697/1/6 694/1/6 698/1/6
f 695/1/6 696/1/6 699/1/6
f 699/1/6 696/1/6 700/1/6
f 701/2/6 702/2/6 703/2/6
f 703/2/6 702/2/6 704/2/6
f 705/2/6 706/2/6 707/2/6
f 707/2/6 706/2/6 708/2/6
f 709/2/6 710/2/6 711/2/6
f 711/2/6 710/2/6 712/2/6
f 713/2/6 714/2/6 715/2/6
f 715/2/6 714/2/6 716/2/6
f 717/3/6 718/3/6 719/3/6
f 719/3/6 718/3/6 720/3/6
f 719/5/6 720/5/6 721/5/6
f 721/5/6 720/5/6 722/5/6
f 721/3/6 722/3/6 723/3/6
f 723/3/6 722/3/6 724/3/6
