# MagicaVoxel @ Ephtracy

# group
o 

# material
mtllib alien6.mtl
usemtl palette

# normals
vn -1 0 0
vn 1 0 0
vn 0 0 1
vn 0 0 -1
vn 0 -1 0
vn 0 1 0

# texcoords
vt 0.751953 0.5
vt 0.822266 0.5
vt 0.912109 0.5

# verts
v -0.5 0 0
v -0.5 0 -0.1
v -0.5 0 -0.2
v -0.5 0.1 0
v -0.5 0.1 -0.1
v -0.5 0.2 0
v -0.5 0.2 -0.1
v -0.5 0.3 0
v -0.5 0.3 -0.1
v -0.5 0.6 0
v -0.5 0.6 -0.1
v -0.5 0.7 0
v -0.5 0.7 -0.1
v -0.5 0.7 -0.2
v -0.4 0.3 0.1
v -0.4 0.3 0
v -0.4 0.3 -0.1
v -0.4 0.4 0.1
v -0.4 0.4 0
v -0.4 0.6 0
v -0.4 0.6 -0.1
v -0.4 0.7 -0.1
v -0.4 0.7 -0.2
v -0.4 0.8 -0.1
v -0.4 0.8 -0.2
v -0.3 0.4 0.1
v -0.3 0.4 0
v -0.3 0.7 0.1
v -0.3 0.7 0
v -0.3 0.7 -0.1
v -0.3 0.8 0
v -0.3 0.8 -0.1
v -0.3 0.8 -0.2
v -0.3 0.9 -0.1
v -0.3 0.9 -0.2
v -0.2 0.1 -0.1
v -0.2 0.1 -0.2
v -0.2 0.2 0
v -0.2 0.2 -0.1
v -0.2 0.2 -0.2
v -0.2 0.3 0.1
v -0.2 0.3 0
v -0.2 0.3 -0.1
v -0.2 0.4 0.1
v -0.2 0.4 0
v -0.2 0.5 0.2
v -0.2 0.5 0.1
v -0.2 0.7 0.2
v -0.2 0.7 0.1
v -0.2 0.7 0
v -0.2 0.8 0.1
v -0.2 0.8 0
v -0.2 0.8 -0.1
v -0.2 0.9 0
v -0.2 0.9 -0.1
v -0.2 0.9 -0.2
v -0.2 1 -0.1
v -0.2 1 -0.2
v -0.1 0.8 0.1
v -0.1 0.8 0
v -0.1 0.9 0.1
v -0.1 0.9 0
v -0.1 0.9 -0.1
v -0.1 1 0
v -0.1 1 -0.1
v 0.1 0.1 -0.1
v 0.1 0.1 -0.2
v 0.1 0.2 0
v 0.1 0.2 -0.1
v 0.1 0.2 -0.2
v 0.1 0.3 0.1
v 0.1 0.3 0
v 0.1 0.3 -0.1
v 0.1 0.4 0.1
v 0.1 0.4 0
v 0.1 0.5 0.2
v 0.1 0.5 0.1
v 0.1 0.7 0.2
v 0.1 0.7 0.1
v 0.3 0.3 0.1
v 0.3 0.3 0
v 0.3 0.4 0.1
v 0.3 0.4 0
v 0.4 0 0
v 0.4 0 -0.1
v 0.4 0 -0.2
v 0.4 0.1 0
v 0.4 0.1 -0.1
v 0.4 0.2 0
v 0.4 0.2 -0.1
v 0.4 0.2 -0.2
v 0.4 0.3 0
v 0.4 0.3 -0.1
v -0.4 0 0
v -0.4 0 -0.1
v -0.4 0 -0.2
v -0.4 0.1 0
v -0.4 0.1 -0.1
v -0.4 0.2 0
v -0.4 0.2 -0.1
v -0.4 0.2 -0.2
v -0.4 0.3 0
v -0.4 0.3 -0.1
v -0.3 0.3 0.1
v -0.3 0.3 0
v -0.3 0.4 0.1
v -0.3 0.4 0
v -0.1 0.1 -0.1
v -0.1 0.1 -0.2
v -0.1 0.2 0
v -0.1 0.2 -0.1
v -0.1 0.2 -0.2
v -0.1 0.3 0.1
v -0.1 0.3 0
v -0.1 0.3 -0.1
v -0.1 0.4 0.1
v -0.1 0.4 0
v -0.1 0.5 0.2
v -0.1 0.5 0.1
v -0.1 0.7 0.2
v -0.1 0.7 0.1
v 0.1 0.8 0.1
v 0.1 0.8 0
v 0.1 0.9 0.1
v 0.1 0.9 0
v 0.1 0.9 -0.1
v 0.1 1 0
v 0.1 1 -0.1
v 0.2 0.1 -0.1
v 0.2 0.1 -0.2
v 0.2 0.2 0
v 0.2 0.2 -0.1
v 0.2 0.2 -0.2
v 0.2 0.3 0.1
v 0.2 0.3 0
v 0.2 0.3 -0.1
v 0.2 0.4 0.1
v 0.2 0.4 0
v 0.2 0.5 0.2
v 0.2 0.5 0.1
v 0.2 0.7 0.2
v 0.2 0.7 0.1
v 0.2 0.7 0
v 0.2 0.8 0.1
v 0.2 0.8 0
v 0.2 0.8 -0.1
v 0.2 0.9 0
v 0.2 0.9 -0.1
v 0.2 0.9 -0.2
v 0.2 1 -0.1
v 0.2 1 -0.2
v 0.3 0.4 0.1
v 0.3 0.4 0
v 0.3 0.7 0.1
v 0.3 0.7 0
v 0.3 0.7 -0.1
v 0.3 0.8 0
v 0.3 0.8 -0.1
v 0.3 0.8 -0.2
v 0.3 0.9 -0.1
v 0.3 0.9 -0.2
v 0.4 0.3 0.1
v 0.4 0.3 0
v 0.4 0.3 -0.1
v 0.4 0.4 0.1
v 0.4 0.4 0
v 0.4 0.6 0
v 0.4 0.6 -0.1
v 0.4 0.7 -0.1
v 0.4 0.7 -0.2
v 0.4 0.8 -0.1
v 0.4 0.8 -0.2
v 0.5 0 0
v 0.5 0 -0.1
v 0.5 0 -0.2
v 0.5 0.1 0
v 0.5 0.1 -0.1
v 0.5 0.2 0
v 0.5 0.2 -0.1
v 0.5 0.3 0
v 0.5 0.3 -0.1
v 0.5 0.6 0
v 0.5 0.6 -0.1
v 0.5 0.7 0
v 0.5 0.7 -0.1
v 0.5 0.7 -0.2
v -0.2 0.5 0.2
v -0.2 0.7 0.2
v -0.1 0.5 0.2
v -0.1 0.7 0.2
v 0.1 0.5 0.2
v 0.1 0.7 0.2
v 0.2 0.5 0.2
v 0.2 0.7 0.2
v -0.4 0.3 0.1
v -0.4 0.4 0.1
v -0.3 0.3 0.1
v -0.3 0.4 0.1
v -0.3 0.7 0.1
v -0.2 0.3 0.1
v -0.2 0.4 0.1
v -0.2 0.5 0.1
v -0.2 0.7 0.1
v -0.2 0.8 0.1
v -0.1 0.3 0.1
v -0.1 0.4 0.1
v -0.1 0.5 0.1
v -0.1 0.7 0.1
v -0.1 0.8 0.1
v -0.1 0.9 0.1
v 0.1 0.3 0.1
v 0.1 0.4 0.1
v 0.1 0.5 0.1
v 0.1 0.7 0.1
v 0.1 0.8 0.1
v 0.1 0.9 0.1
v 0.2 0.3 0.1
v 0.2 0.4 0.1
v 0.2 0.5 0.1
v 0.2 0.7 0.1
v 0.2 0.8 0.1
v 0.3 0.3 0.1
v 0.3 0.4 0.1
v 0.3 0.7 0.1
v 0.4 0.3 0.1
v 0.4 0.4 0.1
v -0.5 0 0
v -0.5 0.1 0
v -0.5 0.2 0
v -0.5 0.3 0
v -0.5 0.6 0
v -0.5 0.7 0
v -0.4 0 0
v -0.4 0.1 0
v -0.4 0.2 0
v -0.4 0.3 0
v -0.4 0.4 0
v -0.4 0.6 0
v -0.4 0.7 0
v -0.3 0.3 0
v -0.3 0.4 0
v -0.3 0.7 0
v -0.3 0.8 0
v -0.2 0.2 0
v -0.2 0.3 0
v -0.2 0.4 0
v -0.2 0.7 0
v -0.2 0.8 0
v -0.2 0.9 0
v -0.1 0.2 0
v -0.1 0.3 0
v -0.1 0.4 0
v -0.1 0.8 0
v -0.1 0.9 0
v -0.1 1 0
v 0.1 0.2 0
v 0.1 0.3 0
v 0.1 0.4 0
v 0.1 0.8 0
v 0.1 0.9 0
v 0.1 1 0
v 0.2 0.2 0
v 0.2 0.3 0
v 0.2 0.4 0
v 0.2 0.7 0
v 0.2 0.8 0
v 0.2 0.9 0
v 0.3 0.3 0
v 0.3 0.4 0
v 0.3 0.7 0
v 0.3 0.8 0
v 0.4 0 0
v 0.4 0.1 0
v 0.4 0.2 0
v 0.4 0.3 0
v 0.4 0.4 0
v 0.4 0.6 0
v 0.4 0.7 0
v 0.5 0 0
v 0.5 0.1 0
v 0.5 0.2 0
v 0.5 0.3 0
v 0.5 0.6 0
v 0.5 0.7 0
v -0.5 0.1 -0.1
v -0.5 0.2 -0.1
v -0.5 0.3 -0.1
v -0.5 0.6 -0.1
v -0.4 0.1 -0.1
v -0.4 0.2 -0.1
v -0.4 0.3 -0.1
v -0.4 0.6 -0.1
v -0.4 0.7 -0.1
v -0.4 0.8 -0.1
v -0.3 0.7 -0.1
v -0.3 0.8 -0.1
v -0.3 0.9 -0.1
v -0.2 0.1 -0.1
v -0.2 0.2 -0.1
v -0.2 0.3 -0.1
v -0.2 0.8 -0.1
v -0.2 0.9 -0.1
v -0.2 1 -0.1
v -0.1 0.1 -0.1
v -0.1 0.2 -0.1
v -0.1 0.3 -0.1
v -0.1 0.9 -0.1
v -0.1 1 -0.1
v 0.1 0.1 -0.1
v 0.1 0.2 -0.1
v 0.1 0.3 -0.1
v 0.1 0.9 -0.1
v 0.1 1 -0.1
v 0.2 0.1 -0.1
v 0.2 0.2 -0.1
v 0.2 0.3 -0.1
v 0.2 0.8 -0.1
v 0.2 0.9 -0.1
v 0.2 1 -0.1
v 0.3 0.7 -0.1
v 0.3 0.8 -0.1
v 0.3 0.9 -0.1
v 0.4 0.1 -0.1
v 0.4 0.2 -0.1
v 0.4 0.3 -0.1
v 0.4 0.6 -0.1
v 0.4 0.7 -0.1
v 0.4 0.8 -0.1
v 0.5 0.1 -0.1
v 0.5 0.2 -0.1
v 0.5 0.3 -0.1
v 0.5 0.6 -0.1
v -0.5 0 -0.2
v -0.5 0.7 -0.2
v -0.4 0 -0.2
v -0.4 0.2 -0.2
v -0.4 0.7 -0.2
v -0.4 0.8 -0.2
v -0.3 0.8 -0.2
v -0.3 0.9 -0.2
v -0.2 0.1 -0.2
v -0.2 0.2 -0.2
v -0.2 0.9 -0.2
v -0.2 1 -0.2
v -0.1 0.1 -0.2
v -0.1 0.2 -0.2
v 0.1 0.1 -0.2
v 0.1 0.2 -0.2
v 0.2 0.1 -0.2
v 0.2 0.2 -0.2
v 0.2 0.9 -0.2
v 0.2 1 -0.2
v 0.3 0.8 -0.2
v 0.3 0.9 -0.2
v 0.4 0 -0.2
v 0.4 0.2 -0.2
v 0.4 0.7 -0.2
v 0.4 0.8 -0.2
v 0.5 0 -0.2
v 0.5 0.7 -0.2
v -0.5 0 0
v -0.4 0 0
v 0.4 0 0
v 0.5 0 0
v -0.5 0 -0.1
v -0.4 0 -0.1
v 0.4 0 -0.1
v 0.5 0 -0.1
v -0.5 0 -0.2
v -0.4 0 -0.2
v 0.4 0 -0.2
v 0.5 0 -0.2
v -0.2 0.1 -0.1
v -0.1 0.1 -0.1
v 0.1 0.1 -0.1
v 0.2 0.1 -0.1
v -0.2 0.1 -0.2
v -0.1 0.1 -0.2
v 0.1 0.1 -0.2
v 0.2 0.1 -0.2
v -0.5 0.2 0
v -0.4 0.2 0
v -0.2 0.2 0
v -0.1 0.2 0
v 0.1 0.2 0
v 0.2 0.2 0
v 0.4 0.2 0
v 0.5 0.2 0
v -0.5 0.2 -0.1
v -0.4 0.2 -0.1
v -0.2 0.2 -0.1
v -0.1 0.2 -0.1
v 0.1 0.2 -0.1
v 0.2 0.2 -0.1
v 0.4 0.2 -0.1
v 0.5 0.2 -0.1
v -0.4 0.2 -0.2
v -0.2 0.2 -0.2
v -0.1 0.2 -0.2
v 0.1 0.2 -0.2
v 0.2 0.2 -0.2
v 0.4 0.2 -0.2
v -0.4 0.3 0.1
v -0.3 0.3 0.1
v -0.2 0.3 0.1
v -0.1 0.3 0.1
v 0.1 0.3 0.1
v 0.2 0.3 0.1
v 0.3 0.3 0.1
v 0.4 0.3 0.1
v -0.4 0.3 0
v -0.3 0.3 0
v -0.2 0.3 0
v -0.1 0.3 0
v 0.1 0.3 0
v 0.2 0.3 0
v 0.3 0.3 0
v 0.4 0.3 0
v -0.4 0.3 -0.1
v -0.2 0.3 -0.1
v -0.1 0.3 -0.1
v 0.1 0.3 -0.1
v 0.2 0.3 -0.1
v 0.4 0.3 -0.1
v -0.3 0.4 0.1
v -0.2 0.4 0.1
v -0.1 0.4 0.1
v 0.1 0.4 0.1
v 0.2 0.4 0.1
v 0.3 0.4 0.1
v -0.3 0.4 0
v -0.2 0.4 0
v -0.1 0.4 0
v 0.1 0.4 0
v 0.2 0.4 0
v 0.3 0.4 0
v -0.2 0.5 0.2
v -0.1 0.5 0.2
v 0.1 0.5 0.2
v 0.2 0.5 0.2
v -0.2 0.5 0.1
v -0.1 0.5 0.1
v 0.1 0.5 0.1
v 0.2 0.5 0.1
v -0.5 0.6 0
v -0.4 0.6 0
v 0.4 0.6 0
v 0.5 0.6 0
v -0.5 0.6 -0.1
v -0.4 0.6 -0.1
v 0.4 0.6 -0.1
v 0.5 0.6 -0.1
v -0.5 0.1 0
v -0.4 0.1 0
v 0.4 0.1 0
v 0.5 0.1 0
v -0.5 0.1 -0.1
v -0.4 0.1 -0.1
v 0.4 0.1 -0.1
v 0.5 0.1 -0.1
v -0.5 0.3 0
v -0.4 0.3 0
v 0.4 0.3 0
v 0.5 0.3 0
v -0.5 0.3 -0.1
v -0.4 0.3 -0.1
v 0.4 0.3 -0.1
v 0.5 0.3 -0.1
v -0.4 0.4 0.1
v -0.3 0.4 0.1
v 0.3 0.4 0.1
v 0.4 0.4 0.1
v -0.4 0.4 0
v -0.3 0.4 0
v 0.3 0.4 0
v 0.4 0.4 0
v -0.2 0.7 0.2
v -0.1 0.7 0.2
v 0.1 0.7 0.2
v 0.2 0.7 0.2
v -0.3 0.7 0.1
v -0.2 0.7 0.1
v -0.1 0.7 0.1
v 0.1 0.7 0.1
v 0.2 0.7 0.1
v 0.3 0.7 0.1
v -0.5 0.7 0
v -0.4 0.7 0
v -0.3 0.7 0
v -0.2 0.7 0
v 0.2 0.7 0
v 0.3 0.7 0
v 0.4 0.7 0
v 0.5 0.7 0
v -0.5 0.7 -0.1
v -0.4 0.7 -0.1
v -0.3 0.7 -0.1
v 0.3 0.7 -0.1
v 0.4 0.7 -0.1
v 0.5 0.7 -0.1
v -0.5 0.7 -0.2
v -0.4 0.7 -0.2
v 0.4 0.7 -0.2
v 0.5 0.7 -0.2
v -0.2 0.8 0.1
v -0.1 0.8 0.1
v 0.1 0.8 0.1
v 0.2 0.8 0.1
v -0.3 0.8 0
v -0.2 0.8 0
v -0.1 0.8 0
v 0.1 0.8 0
v 0.2 0.8 0
v 0.3 0.8 0
v -0.4 0.8 -0.1
v -0.3 0.8 -0.1
v -0.2 0.8 -0.1
v 0.2 0.8 -0.1
v 0.3 0.8 -0.1
v 0.4 0.8 -0.1
v -0.4 0.8 -0.2
v -0.3 0.8 -0.2
v 0.3 0.8 -0.2
v 0.4 0.8 -0.2
v -0.1 0.9 0.1
v 0.1 0.9 0.1
v -0.2 0.9 0
v -0.1 0.9 0
v 0.1 0.9 0
v 0.2 0.9 0
v -0.3 0.9 -0.1
v -0.2 0.9 -0.1
v -0.1 0.9 -0.1
v 0.1 0.9 -0.1
v 0.2 0.9 -0.1
v 0.3 0.9 -0.1
v -0.3 0.9 -0.2
v -0.2 0.9 -0.2
v 0.2 0.9 -0.2
v 0.3 0.9 -0.2
v -0.1 1 0
v 0.1 1 0
v -0.2 1 -0.1
v -0.1 1 -0.1
v 0.1 1 -0.1
v 0.2 1 -0.1
v -0.2 1 -0.2
v 0.2 1 -0.2

# faces
f 4/2/1 2/2/1 1/2/1
f 5/1/1 3/1/1 2/1/1
f 5/2/1 2/2/1 4/2/1
f 7/1/1 3/1/1 5/1/1
f 8/3/1 7/3/1 6/3/1
f 9/1/1 3/1/1 7/1/1
f 9/3/1 7/3/1 8/3/1
f 11/1/1 3/1/1 9/1/1
f 12/2/1 11/2/1 10/2/1
f 13/1/1 3/1/1 11/1/1
f 13/2/1 11/2/1 12/2/1
f 14/1/1 3/1/1 13/1/1
f 18/1/1 16/1/1 15/1/1
f 19/3/1 17/3/1 16/3/1
f 19/1/1 16/1/1 18/1/1
f 20/3/1 17/3/1 19/3/1
f 21/3/1 17/3/1 20/3/1
f 24/1/1 23/1/1 22/1/1
f 25/1/1 23/1/1 24/1/1
f 28/3/1 27/3/1 26/3/1
f 29/3/1 27/3/1 28/3/1
f 31/3/1 30/3/1 29/3/1
f 32/3/1 30/3/1 31/3/1
f 34/1/1 33/1/1 32/1/1
f 35/1/1 33/1/1 34/1/1
f 39/1/1 37/1/1 36/1/1
f 40/1/1 37/1/1 39/1/1
f 42/3/1 39/3/1 38/3/1
f 43/3/1 39/3/1 42/3/1
f 44/1/1 42/1/1 41/1/1
f 45/1/1 42/1/1 44/1/1
f 48/2/1 47/2/1 46/2/1
f 49/2/1 47/2/1 48/2/1
f 51/3/1 50/3/1 49/3/1
f 52/3/1 50/3/1 51/3/1
f 54/3/1 53/3/1 52/3/1
f 55/3/1 53/3/1 54/3/1
f 57/1/1 56/1/1 55/1/1
f 58/1/1 56/1/1 57/1/1
f 61/3/1 60/3/1 59/3/1
f 62/3/1 60/3/1 61/3/1
f 64/3/1 63/3/1 62/3/1
f 65/3/1 63/3/1 64/3/1
f 69/1/1 67/1/1 66/1/1
f 70/1/1 67/1/1 69/1/1
f 72/3/1 69/3/1 68/3/1
f 73/3/1 69/3/1 72/3/1
f 74/1/1 72/1/1 71/1/1
f 75/1/1 72/1/1 74/1/1
f 78/2/1 77/2/1 76/2/1
f 79/2/1 77/2/1 78/2/1
f 82/1/1 81/1/1 80/1/1
f 83/1/1 81/1/1 82/1/1
f 87/2/1 85/2/1 84/2/1
f 88/1/1 86/1/1 85/1/1
f 88/2/1 85/2/1 87/2/1
f 90/1/1 86/1/1 88/1/1
f 91/1/1 86/1/1 90/1/1
f 92/3/1 90/3/1 89/3/1
f 93/3/1 90/3/1 92/3/1
f 94/2/2 95/2/2 97/2/2
f 95/1/2 96/1/2 98/1/2
f 97/2/2 95/2/2 98/2/2
f 98/1/2 96/1/2 100/1/2
f 100/1/2 96/1/2 101/1/2
f 99/3/2 100/3/2 102/3/2
f 102/3/2 100/3/2 103/3/2
f 104/1/2 105/1/2 106/1/2
f 106/1/2 105/1/2 107/1/2
f 108/1/2 109/1/2 111/1/2
f 111/1/2 109/1/2 112/1/2
f 110/3/2 111/3/2 114/3/2
f 114/3/2 111/3/2 115/3/2
f 113/1/2 114/1/2 116/1/2
f 116/1/2 114/1/2 117/1/2
f 118/2/2 119/2/2 120/2/2
f 120/2/2 119/2/2 121/2/2
f 122/3/2 123/3/2 124/3/2
f 124/3/2 123/3/2 125/3/2
f 125/3/2 126/3/2 127/3/2
f 127/3/2 126/3/2 128/3/2
f 129/1/2 130/1/2 132/1/2
f 132/1/2 130/1/2 133/1/2
f 131/3/2 132/3/2 135/3/2
f 135/3/2 132/3/2 136/3/2
f 134/1/2 135/1/2 137/1/2
f 137/1/2 135/1/2 138/1/2
f 139/2/2 140/2/2 141/2/2
f 141/2/2 140/2/2 142/2/2
f 142/3/2 143/3/2 144/3/2
f 144/3/2 143/3/2 145/3/2
f 145/3/2 146/3/2 147/3/2
f 147/3/2 146/3/2 148/3/2
f 148/1/2 149/1/2 150/1/2
f 150/1/2 149/1/2 151/1/2
f 152/3/2 153/3/2 154/3/2
f 154/3/2 153/3/2 155/3/2
f 155/3/2 156/3/2 157/3/2
f 157/3/2 156/3/2 158/3/2
f 158/1/2 159/1/2 160/1/2
f 160/1/2 159/1/2 161/1/2
f 162/1/2 163/1/2 165/1/2
f 163/3/2 164/3/2 166/3/2
f 165/1/2 163/1/2 166/1/2
f 166/3/2 164/3/2 167/3/2
f 167/3/2 164/3/2 168/3/2
f 169/1/2 170/1/2 171/1/2
f 171/1/2 170/1/2 172/1/2
f 173/2/2 174/2/2 176/2/2
f 174/1/2 175/1/2 177/1/2
f 176/2/2 174/2/2 177/2/2
f 177/1/2 175/1/2 179/1/2
f 178/3/2 179/3/2 180/3/2
f 179/1/2 175/1/2 181/1/2
f 180/3/2 179/3/2 181/3/2
f 181/1/2 175/1/2 183/1/2
f 182/2/2 183/2/2 184/2/2
f 183/1/2 175/1/2 185/1/2
f 184/2/2 183/2/2 185/2/2
f 185/1/2 175/1/2 186/1/2
f 189/2/3 188/2/3 187/2/3
f 190/2/3 188/2/3 189/2/3
f 193/2/3 192/2/3 191/2/3
f 194/2/3 192/2/3 193/2/3
f 197/1/3 196/1/3 195/1/3
f 198/1/3 196/1/3 197/1/3
f 201/3/3 199/3/3 198/3/3
f 202/3/3 199/3/3 201/3/3
f 203/3/3 199/3/3 202/3/3
f 205/1/3 201/1/3 200/1/3
f 206/3/3 202/3/3 201/3/3
f 206/1/3 201/1/3 205/1/3
f 207/3/3 202/3/3 206/3/3
f 208/3/3 204/3/3 203/3/3
f 209/3/3 204/3/3 208/3/3
f 212/3/3 207/3/3 206/3/3
f 212/3/3 209/3/3 208/3/3
f 212/3/3 208/3/3 207/3/3
f 212/3/3 210/3/3 209/3/3
f 213/3/3 210/3/3 212/3/3
f 214/3/3 210/3/3 213/3/3
f 215/3/3 210/3/3 214/3/3
f 216/3/3 210/3/3 215/3/3
f 217/1/3 212/1/3 211/1/3
f 218/3/3 213/3/3 212/3/3
f 218/1/3 212/1/3 217/1/3
f 219/3/3 213/3/3 218/3/3
f 220/3/3 215/3/3 214/3/3
f 221/3/3 215/3/3 220/3/3
f 223/3/3 219/3/3 218/3/3
f 223/3/3 220/3/3 219/3/3
f 224/3/3 220/3/3 223/3/3
f 225/1/3 223/1/3 222/1/3
f 226/1/3 223/1/3 225/1/3
f 233/2/3 228/2/3 227/2/3
f 234/2/3 228/2/3 233/2/3
f 235/3/3 230/3/3 229/3/3
f 236/3/3 230/3/3 235/3/3
f 238/2/3 232/2/3 231/2/3
f 239/2/3 232/2/3 238/2/3
f 241/3/3 239/3/3 238/3/3
f 241/3/3 238/3/3 237/3/3
f 242/3/3 239/3/3 241/3/3
f 245/3/3 241/3/3 240/3/3
f 246/3/3 241/3/3 245/3/3
f 247/3/3 243/3/3 242/3/3
f 248/3/3 243/3/3 247/3/3
f 250/3/3 245/3/3 244/3/3
f 251/3/3 245/3/3 250/3/3
f 253/3/3 249/3/3 248/3/3
f 254/3/3 249/3/3 253/3/3
f 257/3/3 252/3/3 251/3/3
f 258/3/3 252/3/3 257/3/3
f 260/3/3 255/3/3 254/3/3
f 261/3/3 255/3/3 260/3/3
f 262/3/3 257/3/3 256/3/3
f 263/3/3 257/3/3 262/3/3
f 266/3/3 260/3/3 259/3/3
f 267/3/3 260/3/3 266/3/3
f 268/3/3 264/3/3 263/3/3
f 269/3/3 264/3/3 268/3/3
f 270/3/3 266/3/3 265/3/3
f 271/3/3 266/3/3 270/3/3
f 276/3/3 270/3/3 269/3/3
f 277/3/3 270/3/3 276/3/3
f 278/3/3 270/3/3 277/3/3
f 279/2/3 273/2/3 272/2/3
f 280/2/3 273/2/3 279/2/3
f 281/3/3 275/3/3 274/3/3
f 282/3/3 275/3/3 281/3/3
f 283/2/3 278/2/3 277/2/3
f 284/2/3 278/2/3 283/2/3
f 289/1/3 286/1/3 285/1/3
f 290/1/3 286/1/3 289/1/3
f 291/1/3 288/1/3 287/1/3
f 292/1/3 288/1/3 291/1/3
f 295/1/3 294/1/3 293/1/3
f 296/1/3 294/1/3 295/1/3
f 299/1/3 291/1/3 290/1/3
f 300/1/3 291/1/3 299/1/3
f 301/1/3 297/1/3 296/1/3
f 302/1/3 297/1/3 301/1/3
f 304/1/3 299/1/3 298/1/3
f 305/1/3 299/1/3 304/1/3
f 307/1/3 303/1/3 302/1/3
f 308/1/3 303/1/3 307/1/3
f 310/1/3 306/1/3 305/1/3
f 311/1/3 306/1/3 310/1/3
f 314/1/3 310/1/3 309/1/3
f 315/1/3 310/1/3 314/1/3
f 318/1/3 313/1/3 312/1/3
f 319/1/3 313/1/3 318/1/3
f 321/1/3 318/1/3 317/1/3
f 322/1/3 318/1/3 321/1/3
f 324/1/3 316/1/3 315/1/3
f 325/1/3 316/1/3 324/1/3
f 327/1/3 321/1/3 320/1/3
f 328/1/3 321/1/3 327/1/3
f 329/1/3 324/1/3 323/1/3
f 330/1/3 324/1/3 329/1/3
f 331/1/3 326/1/3 325/1/3
f 332/1/3 326/1/3 331/1/3
f 333/1/4 334/1/4 335/1/4
f 335/1/4 334/1/4 336/1/4
f 336/1/4 334/1/4 337/1/4
f 337/1/4 338/1/4 339/1/4
f 336/1/4 337/1/4 339/1/4
f 336/1/4 339/1/4 342/1/4
f 339/1/4 340/1/4 342/1/4
f 342/1/4 340/1/4 343/1/4
f 341/1/4 342/1/4 345/1/4
f 343/1/4 344/1/4 345/1/4
f 342/1/4 343/1/4 345/1/4
f 345/1/4 344/1/4 346/1/4
f 346/1/4 344/1/4 348/1/4
f 347/1/4 348/1/4 349/1/4
f 348/1/4 344/1/4 350/1/4
f 349/1/4 348/1/4 350/1/4
f 350/1/4 344/1/4 351/1/4
f 351/1/4 344/1/4 352/1/4
f 350/1/4 351/1/4 353/1/4
f 353/1/4 351/1/4 354/1/4
f 350/1/4 353/1/4 356/1/4
f 356/1/4 353/1/4 357/1/4
f 357/1/4 353/1/4 358/1/4
f 355/1/4 356/1/4 359/1/4
f 356/1/4 357/1/4 359/1/4
f 359/1/4 357/1/4 360/1/4
f 365/2/5 362/2/5 361/2/5
f 366/2/5 362/2/5 365/2/5
f 367/2/5 364/2/5 363/2/5
f 368/2/5 364/2/5 367/2/5
f 369/1/5 366/1/5 365/1/5
f 370/1/5 366/1/5 369/1/5
f 371/1/5 368/1/5 367/1/5
f 372/1/5 368/1/5 371/1/5
f 377/1/5 374/1/5 373/1/5
f 378/1/5 374/1/5 377/1/5
f 379/1/5 376/1/5 375/1/5
f 380/1/5 376/1/5 379/1/5
f 389/3/5 382/3/5 381/3/5
f 390/3/5 382/3/5 389/3/5
f 391/3/5 384/3/5 383/3/5
f 392/3/5 384/3/5 391/3/5
f 393/3/5 386/3/5 385/3/5
f 394/3/5 386/3/5 393/3/5
f 395/3/5 388/3/5 387/3/5
f 396/3/5 388/3/5 395/3/5
f 397/1/5 391/1/5 390/1/5
f 398/1/5 391/1/5 397/1/5
f 399/1/5 393/1/5 392/1/5
f 400/1/5 393/1/5 399/1/5
f 401/1/5 395/1/5 394/1/5
f 402/1/5 395/1/5 401/1/5
f 411/1/5 404/1/5 403/1/5
f 412/1/5 404/1/5 411/1/5
f 413/1/5 406/1/5 405/1/5
f 414/1/5 406/1/5 413/1/5
f 415/1/5 408/1/5 407/1/5
f 416/1/5 408/1/5 415/1/5
f 417/1/5 410/1/5 409/1/5
f 418/1/5 410/1/5 417/1/5
f 419/3/5 412/3/5 411/3/5
f 419/3/5 413/3/5 412/3/5
f 420/3/5 413/3/5 419/3/5
f 421/3/5 415/3/5 414/3/5
f 422/3/5 415/3/5 421/3/5
f 423/3/5 418/3/5 417/3/5
f 423/3/5 417/3/5 416/3/5
f 424/3/5 418/3/5 423/3/5
f 431/3/5 426/3/5 425/3/5
f 432/3/5 426/3/5 431/3/5
f 433/3/5 428/3/5 427/3/5
f 434/3/5 428/3/5 433/3/5
f 435/3/5 430/3/5 429/3/5
f 436/3/5 430/3/5 435/3/5
f 441/2/5 438/2/5 437/2/5
f 442/2/5 438/2/5 441/2/5
f 443/2/5 440/2/5 439/2/5
f 444/2/5 440/2/5 443/2/5
f 449/2/5 446/2/5 445/2/5
f 450/2/5 446/2/5 449/2/5
f 451/2/5 448/2/5 447/2/5
f 452/2/5 448/2/5 451/2/5
f 453/2/6 454/2/6 457/2/6
f 457/2/6 454/2/6 458/2/6
f 455/2/6 456/2/6 459/2/6
f 459/2/6 456/2/6 460/2/6
f 461/3/6 462/3/6 465/3/6
f 465/3/6 462/3/6 466/3/6
f 463/3/6 464/3/6 467/3/6
f 467/3/6 464/3/6 468/3/6
f 469/1/6 470/1/6 473/1/6
f 473/1/6 470/1/6 474/1/6
f 471/1/6 472/1/6 475/1/6
f 475/1/6 472/1/6 476/1/6
f 477/2/6 478/2/6 482/2/6
f 482/2/6 478/2/6 483/2/6
f 479/2/6 480/2/6 484/2/6
f 484/2/6 480/2/6 485/2/6
f 481/3/6 482/3/6 489/3/6
f 489/3/6 482/3/6 490/3/6
f 485/3/6 486/3/6 491/3/6
f 491/3/6 486/3/6 492/3/6
f 487/2/6 488/2/6 495/2/6
f 488/3/6 489/3/6 496/3/6
f 495/2/6 488/2/6 496/2/6
f 496/3/6 489/3/6 497/3/6
f 492/3/6 493/3/6 498/3/6
f 493/2/6 494/2/6 499/2/6
f 498/3/6 493/3/6 499/3/6
f 499/2/6 494/2/6 500/2/6
f 495/1/6 496/1/6 501/1/6
f 501/1/6 496/1/6 502/1/6
f 499/1/6 500/1/6 503/1/6
f 503/1/6 500/1/6 504/1/6
f 505/3/6 506/3/6 510/3/6
f 510/3/6 506/3/6 511/3/6
f 507/3/6 508/3/6 512/3/6
f 512/3/6 508/3/6 513/3/6
f 509/3/6 510/3/6 516/3/6
f 516/3/6 510/3/6 517/3/6
f 513/3/6 514/3/6 518/3/6
f 518/3/6 514/3/6 519/3/6
f 515/1/6 516/1/6 521/1/6
f 521/1/6 516/1/6 522/1/6
f 519/1/6 520/1/6 523/1/6
f 523/1/6 520/1/6 524/1/6
f 525/3/6 526/3/6 528/3/6
f 528/3/6 526/3/6 529/3/6
f 527/3/6 528/3/6 532/3/6
f 532/3/6 528/3/6 533/3/6
f 529/3/6 530/3/6 534/3/6
f 534/3/6 530/3/6 535/3/6
f 531/1/6 532/1/6 537/1/6
f 537/1/6 532/1/6 538/1/6
f 535/1/6 536/1/6 539/1/6
f 539/1/6 536/1/6 540/1/6
f 541/3/6 542/3/6 544/3/6
f 544/3/6 542/3/6 545/3/6
f 543/1/6 544/1/6 547/1/6
f 545/1/6 546/1/6 547/1/6
f 544/1/6 545/1/6 547/1/6
f 547/1/6 546/1/6 548/1/6
