# MagicaVoxel @ Ephtracy

# group
o 

# material
mtllib alien1.mtl
usemtl palette

# normals
vn -1 0 0
vn 1 0 0
vn 0 0 1
vn 0 0 -1
vn 0 -1 0
vn 0 1 0

# texcoords
vt 0.876953 0.5
vt 0.939453 0.5
vt 0.943359 0.5
vt 0.974609 0.5

# verts
v -0.5 0 -0.1
v -0.5 0 -0.4
v -0.5 0 -0.5
v -0.5 0.1 -0.1
v -0.5 0.1 -0.4
v -0.5 0.1 -0.5
v -0.4 0.1 -0.3
v -0.4 0.1 -0.4
v -0.4 0.1 -0.5
v -0.4 0.2 -0.3
v -0.4 0.2 -0.4
v -0.4 0.2 -0.5
v -0.4 0.3 -0.3
v -0.4 0.3 -0.4
v -0.4 0.3 -0.5
v -0.4 0.4 -0.2
v -0.4 0.4 -0.3
v -0.4 0.6 -0.2
v -0.4 0.6 -0.3
v -0.4 0.7 -0.3
v -0.4 0.7 -0.4
v -0.4 0.7 -0.5
v -0.3 0.2 -0.4
v -0.3 0.2 -0.5
v -0.3 0.3 -0.2
v -0.3 0.3 -0.3
v -0.3 0.3 -0.4
v -0.3 0.3 -0.5
v -0.3 0.4 -0.2
v -0.3 0.4 -0.3
v -0.3 0.6 -0.1
v -0.3 0.6 -0.2
v -0.3 0.6 -0.3
v -0.3 0.7 -0.1
v -0.3 0.7 -0.3
v -0.3 0.7 -0.4
v -0.3 0.7 -0.5
v -0.3 0.8 -0.3
v -0.3 0.8 -0.4
v -0.3 0.8 -0.5
v -0.2 0 -0.1
v -0.2 0 -0.4
v -0.2 0 -0.5
v -0.2 0.1 -0.1
v -0.2 0.1 -0.3
v -0.2 0.2 -0.4
v -0.2 0.2 -0.5
v -0.2 0.3 -0.3
v -0.2 0.3 -0.4
v -0.2 0.4 -0.2
v -0.2 0.4 -0.4
v -0.2 0.5 -0.2
v -0.2 0.5 -0.4
v -0.1 0.3 -0.1
v -0.1 0.3 -0.2
v -0.1 0.4 0
v -0.1 0.4 -0.1
v -0.1 0.4 -0.2
v -0.1 0.5 0
v -0.1 0.5 -0.1
v -0.1 0.5 -0.2
v -0.1 0.5 -0.4
v -0.1 0.6 -0.1
v -0.1 0.6 -0.4
v -0.1 0.8 -0.4
v -0.1 0.8 -0.5
v -0.1 0.9 -0.3
v -0.1 0.9 -0.4
v -0.1 1 -0.3
v -0.1 1 -0.4
v -0.1 1 -0.5
v 0.1 0 -0.1
v 0.1 0 -0.4
v 0.1 0 -0.5
v 0.1 0.1 -0.1
v 0.1 0.1 -0.3
v 0.1 0.1 -0.4
v 0.1 0.1 -0.5
v 0.1 0.3 -0.3
v 0.1 0.3 -0.4
v 0.1 0.6 -0.1
v 0.1 0.6 -0.2
v 0.1 0.7 -0.1
v 0.1 0.7 -0.2
v 0.1 0.7 -0.3
v 0.1 0.7 -0.4
v 0.1 0.8 -0.3
v 0.1 0.8 -0.4
v 0.3 0.1 -0.3
v 0.3 0.1 -0.4
v 0.3 0.1 -0.5
v 0.3 0.2 -0.3
v 0.3 0.2 -0.4
v 0.3 0.2 -0.5
v 0.3 0.4 -0.2
v 0.3 0.4 -0.4
v 0.3 0.6 -0.2
v 0.3 0.6 -0.4
v 0.4 0 -0.1
v 0.4 0 -0.4
v 0.4 0 -0.5
v 0.4 0.1 -0.1
v 0.4 0.1 -0.3
v 0.4 0.1 -0.4
v 0.4 0.1 -0.5
v -0.4 0 -0.1
v -0.4 0 -0.4
v -0.4 0 -0.5
v -0.4 0.1 -0.1
v -0.4 0.1 -0.3
v -0.4 0.1 -0.4
v -0.4 0.1 -0.5
v -0.3 0.1 -0.3
v -0.3 0.1 -0.4
v -0.3 0.1 -0.5
v -0.3 0.2 -0.3
v -0.3 0.2 -0.4
v -0.3 0.2 -0.5
v -0.3 0.4 -0.2
v -0.3 0.4 -0.4
v -0.3 0.6 -0.2
v -0.3 0.6 -0.4
v -0.1 0 -0.1
v -0.1 0 -0.4
v -0.1 0 -0.5
v -0.1 0.1 -0.1
v -0.1 0.1 -0.3
v -0.1 0.1 -0.4
v -0.1 0.1 -0.5
v -0.1 0.3 -0.3
v -0.1 0.3 -0.4
v -0.1 0.6 -0.1
v -0.1 0.6 -0.2
v -0.1 0.7 -0.1
v -0.1 0.7 -0.2
v -0.1 0.7 -0.3
v -0.1 0.7 -0.4
v -0.1 0.8 -0.3
v -0.1 0.8 -0.4
v 0.1 0.3 -0.1
v 0.1 0.3 -0.2
v 0.1 0.4 0
v 0.1 0.4 -0.1
v 0.1 0.4 -0.2
v 0.1 0.5 0
v 0.1 0.5 -0.1
v 0.1 0.5 -0.2
v 0.1 0.5 -0.4
v 0.1 0.6 -0.1
v 0.1 0.6 -0.4
v 0.1 0.8 -0.4
v 0.1 0.8 -0.5
v 0.1 0.9 -0.3
v 0.1 0.9 -0.4
v 0.1 1 -0.3
v 0.1 1 -0.4
v 0.1 1 -0.5
v 0.2 0 -0.1
v 0.2 0 -0.4
v 0.2 0 -0.5
v 0.2 0.1 -0.1
v 0.2 0.1 -0.3
v 0.2 0.2 -0.4
v 0.2 0.2 -0.5
v 0.2 0.3 -0.3
v 0.2 0.3 -0.4
v 0.2 0.4 -0.2
v 0.2 0.4 -0.4
v 0.2 0.5 -0.2
v 0.2 0.5 -0.4
v 0.3 0.2 -0.4
v 0.3 0.2 -0.5
v 0.3 0.3 -0.2
v 0.3 0.3 -0.3
v 0.3 0.3 -0.4
v 0.3 0.3 -0.5
v 0.3 0.4 -0.2
v 0.3 0.4 -0.3
v 0.3 0.6 -0.1
v 0.3 0.6 -0.2
v 0.3 0.6 -0.3
v 0.3 0.7 -0.1
v 0.3 0.7 -0.3
v 0.3 0.7 -0.4
v 0.3 0.7 -0.5
v 0.3 0.8 -0.3
v 0.3 0.8 -0.4
v 0.3 0.8 -0.5
v 0.4 0.1 -0.3
v 0.4 0.1 -0.4
v 0.4 0.1 -0.5
v 0.4 0.2 -0.3
v 0.4 0.2 -0.4
v 0.4 0.2 -0.5
v 0.4 0.3 -0.3
v 0.4 0.3 -0.4
v 0.4 0.3 -0.5
v 0.4 0.4 -0.2
v 0.4 0.4 -0.3
v 0.4 0.6 -0.2
v 0.4 0.6 -0.3
v 0.4 0.7 -0.3
v 0.4 0.7 -0.4
v 0.4 0.7 -0.5
v 0.5 0 -0.1
v 0.5 0 -0.4
v 0.5 0 -0.5
v 0.5 0.1 -0.1
v 0.5 0.1 -0.4
v 0.5 0.1 -0.5
v -0.1 0.4 0
v -0.1 0.5 0
v 0.1 0.4 0
v 0.1 0.5 0
v -0.5 0 -0.1
v -0.5 0.1 -0.1
v -0.4 0 -0.1
v -0.4 0.1 -0.1
v -0.3 0.6 -0.1
v -0.3 0.7 -0.1
v -0.2 0 -0.1
v -0.2 0.1 -0.1
v -0.1 0 -0.1
v -0.1 0.1 -0.1
v -0.1 0.3 -0.1
v -0.1 0.4 -0.1
v -0.1 0.5 -0.1
v -0.1 0.6 -0.1
v -0.1 0.7 -0.1
v 0.1 0 -0.1
v 0.1 0.1 -0.1
v 0.1 0.3 -0.1
v 0.1 0.4 -0.1
v 0.1 0.5 -0.1
v 0.1 0.6 -0.1
v 0.1 0.7 -0.1
v 0.2 0 -0.1
v 0.2 0.1 -0.1
v 0.3 0.6 -0.1
v 0.3 0.7 -0.1
v 0.4 0 -0.1
v 0.4 0.1 -0.1
v 0.5 0 -0.1
v 0.5 0.1 -0.1
v -0.4 0.4 -0.2
v -0.4 0.6 -0.2
v -0.3 0.3 -0.2
v -0.3 0.4 -0.2
v -0.3 0.6 -0.2
v -0.2 0.4 -0.2
v -0.2 0.5 -0.2
v -0.1 0.3 -0.2
v -0.1 0.4 -0.2
v -0.1 0.5 -0.2
v -0.1 0.6 -0.2
v -0.1 0.7 -0.2
v 0.1 0.3 -0.2
v 0.1 0.4 -0.2
v 0.1 0.5 -0.2
v 0.1 0.6 -0.2
v 0.1 0.7 -0.2
v 0.2 0.4 -0.2
v 0.2 0.5 -0.2
v 0.3 0.3 -0.2
v 0.3 0.4 -0.2
v 0.3 0.6 -0.2
v 0.4 0.4 -0.2
v 0.4 0.6 -0.2
v -0.4 0.1 -0.3
v -0.4 0.2 -0.3
v -0.4 0.3 -0.3
v -0.4 0.4 -0.3
v -0.4 0.6 -0.3
v -0.4 0.7 -0.3
v -0.3 0.1 -0.3
v -0.3 0.2 -0.3
v -0.3 0.3 -0.3
v -0.3 0.4 -0.3
v -0.3 0.6 -0.3
v -0.3 0.7 -0.3
v -0.3 0.8 -0.3
v -0.2 0.1 -0.3
v -0.2 0.3 -0.3
v -0.1 0.1 -0.3
v -0.1 0.3 -0.3
v -0.1 0.7 -0.3
v -0.1 0.8 -0.3
v -0.1 0.9 -0.3
v -0.1 1 -0.3
v 0.1 0.1 -0.3
v 0.1 0.3 -0.3
v 0.1 0.7 -0.3
v 0.1 0.8 -0.3
v 0.1 0.9 -0.3
v 0.1 1 -0.3
v 0.2 0.1 -0.3
v 0.2 0.3 -0.3
v 0.3 0.1 -0.3
v 0.3 0.2 -0.3
v 0.3 0.3 -0.3
v 0.3 0.4 -0.3
v 0.3 0.6 -0.3
v 0.3 0.7 -0.3
v 0.3 0.8 -0.3
v 0.4 0.1 -0.3
v 0.4 0.2 -0.3
v 0.4 0.3 -0.3
v 0.4 0.4 -0.3
v 0.4 0.6 -0.3
v 0.4 0.7 -0.3
v -0.3 0.2 -0.4
v -0.3 0.3 -0.4
v -0.3 0.4 -0.4
v -0.3 0.6 -0.4
v -0.2 0.2 -0.4
v -0.2 0.3 -0.4
v -0.2 0.4 -0.4
v -0.2 0.5 -0.4
v -0.1 0.1 -0.4
v -0.1 0.3 -0.4
v -0.1 0.5 -0.4
v -0.1 0.6 -0.4
v -0.1 0.7 -0.4
v -0.1 0.8 -0.4
v -0.1 0.9 -0.4
v 0.1 0.1 -0.4
v 0.1 0.3 -0.4
v 0.1 0.5 -0.4
v 0.1 0.6 -0.4
v 0.1 0.7 -0.4
v 0.1 0.8 -0.4
v 0.1 0.9 -0.4
v 0.2 0.2 -0.4
v 0.2 0.3 -0.4
v 0.2 0.4 -0.4
v 0.2 0.5 -0.4
v 0.3 0.2 -0.4
v 0.3 0.3 -0.4
v 0.3 0.4 -0.4
v 0.3 0.6 -0.4
v -0.5 0 -0.5
v -0.5 0.1 -0.5
v -0.4 0 -0.5
v -0.4 0.1 -0.5
v -0.4 0.2 -0.5
v -0.4 0.3 -0.5
v -0.4 0.7 -0.5
v -0.3 0.1 -0.5
v -0.3 0.2 -0.5
v -0.3 0.3 -0.5
v -0.3 0.4 -0.5
v -0.3 0.6 -0.5
v -0.3 0.7 -0.5
v -0.3 0.8 -0.5
v -0.2 0 -0.5
v -0.2 0.2 -0.5
v -0.2 0.4 -0.5
v -0.2 0.5 -0.5
v -0.1 0 -0.5
v -0.1 0.1 -0.5
v -0.1 0.4 -0.5
v -0.1 0.5 -0.5
v -0.1 0.6 -0.5
v -0.1 0.8 -0.5
v -0.1 1 -0.5
v 0.1 0 -0.5
v 0.1 0.1 -0.5
v 0.1 0.4 -0.5
v 0.1 0.5 -0.5
v 0.1 0.6 -0.5
v 0.1 0.8 -0.5
v 0.1 1 -0.5
v 0.2 0 -0.5
v 0.2 0.2 -0.5
v 0.2 0.4 -0.5
v 0.2 0.5 -0.5
v 0.3 0.1 -0.5
v 0.3 0.2 -0.5
v 0.3 0.3 -0.5
v 0.3 0.4 -0.5
v 0.3 0.6 -0.5
v 0.3 0.7 -0.5
v 0.3 0.8 -0.5
v 0.4 0 -0.5
v 0.4 0.1 -0.5
v 0.4 0.2 -0.5
v 0.4 0.3 -0.5
v 0.4 0.7 -0.5
v 0.5 0 -0.5
v 0.5 0.1 -0.5
v -0.5 0 -0.1
v -0.4 0 -0.1
v -0.2 0 -0.1
v -0.1 0 -0.1
v 0.1 0 -0.1
v 0.2 0 -0.1
v 0.4 0 -0.1
v 0.5 0 -0.1
v -0.5 0 -0.4
v -0.4 0 -0.4
v -0.2 0 -0.4
v -0.1 0 -0.4
v 0.1 0 -0.4
v 0.2 0 -0.4
v 0.4 0 -0.4
v 0.5 0 -0.4
v -0.5 0 -0.5
v -0.4 0 -0.5
v -0.2 0 -0.5
v -0.1 0 -0.5
v 0.1 0 -0.5
v 0.2 0 -0.5
v 0.4 0 -0.5
v 0.5 0 -0.5
v -0.4 0.1 -0.3
v -0.3 0.1 -0.3
v 0.3 0.1 -0.3
v 0.4 0.1 -0.3
v -0.4 0.1 -0.4
v -0.3 0.1 -0.4
v -0.1 0.1 -0.4
v 0.1 0.1 -0.4
v 0.3 0.1 -0.4
v 0.4 0.1 -0.4
v -0.4 0.1 -0.5
v -0.3 0.1 -0.5
v -0.1 0.1 -0.5
v 0.1 0.1 -0.5
v 0.3 0.1 -0.5
v 0.4 0.1 -0.5
v -0.3 0.2 -0.4
v -0.2 0.2 -0.4
v 0.2 0.2 -0.4
v 0.3 0.2 -0.4
v -0.3 0.2 -0.5
v -0.2 0.2 -0.5
v 0.2 0.2 -0.5
v 0.3 0.2 -0.5
v -0.1 0.3 -0.1
v 0.1 0.3 -0.1
v -0.3 0.3 -0.2
v -0.1 0.3 -0.2
v 0.1 0.3 -0.2
v 0.3 0.3 -0.2
v -0.4 0.3 -0.3
v -0.3 0.3 -0.3
v -0.2 0.3 -0.3
v -0.1 0.3 -0.3
v 0.1 0.3 -0.3
v 0.2 0.3 -0.3
v 0.3 0.3 -0.3
v 0.4 0.3 -0.3
v -0.4 0.3 -0.4
v -0.3 0.3 -0.4
v -0.2 0.3 -0.4
v -0.1 0.3 -0.4
v 0.1 0.3 -0.4
v 0.2 0.3 -0.4
v 0.3 0.3 -0.4
v 0.4 0.3 -0.4
v -0.4 0.3 -0.5
v -0.3 0.3 -0.5
v 0.3 0.3 -0.5
v 0.4 0.3 -0.5
v -0.1 0.4 0
v 0.1 0.4 0
v -0.1 0.4 -0.1
v 0.1 0.4 -0.1
v -0.4 0.4 -0.2
v -0.3 0.4 -0.2
v 0.3 0.4 -0.2
v 0.4 0.4 -0.2
v -0.4 0.4 -0.3
v -0.3 0.4 -0.3
v 0.3 0.4 -0.3
v 0.4 0.4 -0.3
v -0.3 0.6 -0.1
v -0.1 0.6 -0.1
v 0.1 0.6 -0.1
v 0.3 0.6 -0.1
v -0.3 0.6 -0.2
v 0.3 0.6 -0.2
v -0.3 0.6 -0.4
v -0.1 0.6 -0.4
v 0.1 0.6 -0.4
v 0.3 0.6 -0.4
v -0.1 0.9 -0.3
v 0.1 0.9 -0.3
v -0.1 0.9 -0.4
v 0.1 0.9 -0.4
v -0.5 0.1 -0.1
v -0.4 0.1 -0.1
v -0.2 0.1 -0.1
v -0.1 0.1 -0.1
v 0.1 0.1 -0.1
v 0.2 0.1 -0.1
v 0.4 0.1 -0.1
v 0.5 0.1 -0.1
v -0.4 0.1 -0.3
v -0.2 0.1 -0.3
v -0.1 0.1 -0.3
v 0.1 0.1 -0.3
v 0.2 0.1 -0.3
v 0.4 0.1 -0.3
v -0.5 0.1 -0.4
v -0.4 0.1 -0.4
v 0.4 0.1 -0.4
v 0.5 0.1 -0.4
v -0.5 0.1 -0.5
v -0.4 0.1 -0.5
v 0.4 0.1 -0.5
v 0.5 0.1 -0.5
v -0.4 0.2 -0.3
v -0.3 0.2 -0.3
v 0.3 0.2 -0.3
v 0.4 0.2 -0.3
v -0.4 0.2 -0.4
v -0.3 0.2 -0.4
v 0.3 0.2 -0.4
v 0.4 0.2 -0.4
v -0.4 0.2 -0.5
v -0.3 0.2 -0.5
v 0.3 0.2 -0.5
v 0.4 0.2 -0.5
v -0.3 0.4 -0.2
v -0.2 0.4 -0.2
v 0.2 0.4 -0.2
v 0.3 0.4 -0.2
v -0.3 0.4 -0.4
v -0.2 0.4 -0.4
v 0.2 0.4 -0.4
v 0.3 0.4 -0.4
v -0.1 0.5 0
v 0.1 0.5 0
v -0.1 0.5 -0.1
v 0.1 0.5 -0.1
v -0.2 0.5 -0.2
v -0.1 0.5 -0.2
v 0.1 0.5 -0.2
v 0.2 0.5 -0.2
v -0.2 0.5 -0.4
v -0.1 0.5 -0.4
v 0.1 0.5 -0.4
v 0.2 0.5 -0.4
v -0.1 0.6 -0.1
v 0.1 0.6 -0.1
v -0.4 0.6 -0.2
v -0.3 0.6 -0.2
v -0.1 0.6 -0.2
v 0.1 0.6 -0.2
v 0.3 0.6 -0.2
v 0.4 0.6 -0.2
v -0.4 0.6 -0.3
v -0.3 0.6 -0.3
v 0.3 0.6 -0.3
v 0.4 0.6 -0.3
v -0.3 0.7 -0.1
v -0.1 0.7 -0.1
v 0.1 0.7 -0.1
v 0.3 0.7 -0.1
v -0.1 0.7 -0.2
v 0.1 0.7 -0.2
v -0.4 0.7 -0.3
v -0.3 0.7 -0.3
v -0.1 0.7 -0.3
v 0.1 0.7 -0.3
v 0.3 0.7 -0.3
v 0.4 0.7 -0.3
v -0.4 0.7 -0.4
v -0.3 0.7 -0.4
v -0.1 0.7 -0.4
v 0.1 0.7 -0.4
v 0.3 0.7 -0.4
v 0.4 0.7 -0.4
v -0.4 0.7 -0.5
v -0.3 0.7 -0.5
v 0.3 0.7 -0.5
v 0.4 0.7 -0.5
v -0.3 0.8 -0.3
v -0.1 0.8 -0.3
v 0.1 0.8 -0.3
v 0.3 0.8 -0.3
v -0.3 0.8 -0.4
v -0.1 0.8 -0.4
v 0.1 0.8 -0.4
v 0.3 0.8 -0.4
v -0.3 0.8 -0.5
v -0.1 0.8 -0.5
v 0.1 0.8 -0.5
v 0.3 0.8 -0.5
v -0.1 1 -0.3
v 0.1 1 -0.3
v -0.1 1 -0.4
v 0.1 1 -0.4
v -0.1 1 -0.5
v 0.1 1 -0.5

# faces
f 4/3/1 2/3/1 1/3/1
f 5/2/1 3/2/1 2/2/1
f 5/3/1 2/3/1 4/3/1
f 6/2/1 3/2/1 5/2/1
f 10/3/1 8/3/1 7/3/1
f 11/2/1 9/2/1 8/2/1
f 11/3/1 8/3/1 10/3/1
f 12/2/1 9/2/1 11/2/1
f 17/3/1 14/3/1 13/3/1
f 18/3/1 17/3/1 16/3/1
f 19/3/1 14/3/1 17/3/1
f 19/3/1 17/3/1 18/3/1
f 20/3/1 14/3/1 19/3/1
f 21/2/1 15/2/1 14/2/1
f 21/3/1 14/3/1 20/3/1
f 22/2/1 15/2/1 21/2/1
f 27/2/1 24/2/1 23/2/1
f 28/2/1 24/2/1 27/2/1
f 29/3/1 26/3/1 25/3/1
f 30/3/1 26/3/1 29/3/1
f 34/3/1 32/3/1 31/3/1
f 34/3/1 33/3/1 32/3/1
f 35/3/1 33/3/1 34/3/1
f 38/3/1 36/3/1 35/3/1
f 39/2/1 37/2/1 36/2/1
f 39/3/1 36/3/1 38/3/1
f 40/2/1 37/2/1 39/2/1
f 44/3/1 42/3/1 41/3/1
f 45/3/1 42/3/1 44/3/1
f 46/2/1 43/2/1 42/2/1
f 46/3/1 42/3/1 45/3/1
f 47/2/1 43/2/1 46/2/1
f 48/3/1 46/3/1 45/3/1
f 49/3/1 46/3/1 48/3/1
f 52/1/1 51/1/1 50/1/1
f 53/1/1 51/1/1 52/1/1
f 57/3/1 55/3/1 54/3/1
f 58/3/1 55/3/1 57/3/1
f 59/3/1 57/3/1 56/3/1
f 59/3/1 58/3/1 57/3/1
f 60/3/1 58/3/1 59/3/1
f 61/3/1 58/3/1 60/3/1
f 63/3/1 61/3/1 60/3/1
f 63/3/1 62/3/1 61/3/1
f 64/3/1 62/3/1 63/3/1
f 68/2/1 66/2/1 65/2/1
f 69/3/1 68/3/1 67/3/1
f 70/2/1 66/2/1 68/2/1
f 70/3/1 68/3/1 69/3/1
f 71/2/1 66/2/1 70/2/1
f 75/3/1 73/3/1 72/3/1
f 76/3/1 73/3/1 75/3/1
f 77/2/1 74/2/1 73/2/1
f 77/3/1 73/3/1 76/3/1
f 78/2/1 74/2/1 77/2/1
f 79/3/1 77/3/1 76/3/1
f 80/3/1 77/3/1 79/3/1
f 83/3/1 82/3/1 81/3/1
f 84/3/1 82/3/1 83/3/1
f 87/3/1 86/3/1 85/3/1
f 88/3/1 86/3/1 87/3/1
f 92/3/1 90/3/1 89/3/1
f 93/2/1 91/2/1 90/2/1
f 93/3/1 90/3/1 92/3/1
f 94/2/1 91/2/1 93/2/1
f 97/3/1 96/3/1 95/3/1
f 98/3/1 96/3/1 97/3/1
f 102/3/1 100/3/1 99/3/1
f 103/3/1 100/3/1 102/3/1
f 104/2/1 101/2/1 100/2/1
f 104/3/1 100/3/1 103/3/1
f 105/2/1 101/2/1 104/2/1
f 106/3/2 107/3/2 109/3/2
f 109/3/2 107/3/2 110/3/2
f 107/2/2 108/2/2 111/2/2
f 110/3/2 107/3/2 111/3/2
f 111/2/2 108/2/2 112/2/2
f 113/3/2 114/3/2 116/3/2
f 114/2/2 115/2/2 117/2/2
f 116/3/2 114/3/2 117/3/2
f 117/2/2 115/2/2 118/2/2
f 119/3/2 120/3/2 121/3/2
f 121/3/2 120/3/2 122/3/2
f 123/3/2 124/3/2 126/3/2
f 126/3/2 124/3/2 127/3/2
f 124/2/2 125/2/2 128/2/2
f 127/3/2 124/3/2 128/3/2
f 128/2/2 125/2/2 129/2/2
f 127/3/2 128/3/2 130/3/2
f 130/3/2 128/3/2 131/3/2
f 132/3/2 133/3/2 134/3/2
f 134/3/2 133/3/2 135/3/2
f 136/3/2 137/3/2 138/3/2
f 138/3/2 137/3/2 139/3/2
f 140/3/2 141/3/2 143/3/2
f 143/3/2 141/3/2 144/3/2
f 142/3/2 143/3/2 145/3/2
f 143/3/2 144/3/2 145/3/2
f 145/3/2 144/3/2 146/3/2
f 146/3/2 144/3/2 147/3/2
f 146/3/2 147/3/2 149/3/2
f 147/3/2 148/3/2 149/3/2
f 149/3/2 148/3/2 150/3/2
f 151/2/2 152/2/2 154/2/2
f 153/3/2 154/3/2 155/3/2
f 154/2/2 152/2/2 156/2/2
f 155/3/2 154/3/2 156/3/2
f 156/2/2 152/2/2 157/2/2
f 158/3/2 159/3/2 161/3/2
f 161/3/2 159/3/2 162/3/2
f 159/2/2 160/2/2 163/2/2
f 162/3/2 159/3/2 163/3/2
f 163/2/2 160/2/2 164/2/2
f 162/3/2 163/3/2 165/3/2
f 165/3/2 163/3/2 166/3/2
f 167/1/2 168/1/2 169/1/2
f 169/1/2 168/1/2 170/1/2
f 171/2/2 172/2/2 175/2/2
f 175/2/2 172/2/2 176/2/2
f 173/3/2 174/3/2 177/3/2
f 177/3/2 174/3/2 178/3/2
f 179/3/2 180/3/2 182/3/2
f 180/3/2 181/3/2 182/3/2
f 182/3/2 181/3/2 183/3/2
f 183/3/2 184/3/2 186/3/2
f 184/2/2 185/2/2 187/2/2
f 186/3/2 184/3/2 187/3/2
f 187/2/2 185/2/2 188/2/2
f 189/3/2 190/3/2 192/3/2
f 190/2/2 191/2/2 193/2/2
f 192/3/2 190/3/2 193/3/2
f 193/2/2 191/2/2 194/2/2
f 195/3/2 196/3/2 199/3/2
f 198/3/2 199/3/2 200/3/2
f 199/3/2 196/3/2 201/3/2
f 200/3/2 199/3/2 201/3/2
f 201/3/2 196/3/2 202/3/2
f 196/2/2 197/2/2 203/2/2
f 202/3/2 196/3/2 203/3/2
f 203/2/2 197/2/2 204/2/2
f 205/3/2 206/3/2 208/3/2
f 206/2/2 207/2/2 209/2/2
f 208/3/2 206/3/2 209/3/2
f 209/2/2 207/2/2 210/2/2
f 213/3/3 212/3/3 211/3/3
f 214/3/3 212/3/3 213/3/3
f 217/3/3 216/3/3 215/3/3
f 218/3/3 216/3/3 217/3/3
f 223/3/3 222/3/3 221/3/3
f 224/3/3 222/3/3 223/3/3
f 228/3/3 220/3/3 219/3/3
f 229/3/3 220/3/3 228/3/3
f 232/3/3 226/3/3 225/3/3
f 233/3/3 226/3/3 232/3/3
f 234/3/3 228/3/3 227/3/3
f 235/3/3 228/3/3 234/3/3
f 237/3/3 231/3/3 230/3/3
f 238/3/3 231/3/3 237/3/3
f 239/3/3 236/3/3 235/3/3
f 240/3/3 236/3/3 239/3/3
f 243/3/3 242/3/3 241/3/3
f 244/3/3 242/3/3 243/3/3
f 248/3/3 246/3/3 245/3/3
f 249/3/3 246/3/3 248/3/3
f 250/3/3 248/3/3 247/3/3
f 252/3/3 250/3/3 247/3/3
f 253/1/3 251/1/3 250/1/3
f 253/3/3 250/3/3 252/3/3
f 254/1/3 251/1/3 253/1/3
f 260/3/3 256/3/3 255/3/3
f 261/3/3 256/3/3 260/3/3
f 262/1/3 259/1/3 258/1/3
f 262/3/3 258/3/3 257/3/3
f 263/1/3 259/1/3 262/1/3
f 264/3/3 262/3/3 257/3/3
f 265/3/3 262/3/3 264/3/3
f 267/3/3 266/3/3 265/3/3
f 268/3/3 266/3/3 267/3/3
f 275/3/3 270/3/3 269/3/3
f 276/3/3 270/3/3 275/3/3
f 277/3/3 272/3/3 271/3/3
f 278/3/3 272/3/3 277/3/3
f 279/3/3 274/3/3 273/3/3
f 280/3/3 274/3/3 279/3/3
f 284/3/3 283/3/3 282/3/3
f 285/3/3 283/3/3 284/3/3
f 286/3/3 281/3/3 280/3/3
f 287/3/3 281/3/3 286/3/3
f 294/3/3 289/3/3 288/3/3
f 295/3/3 289/3/3 294/3/3
f 296/3/3 291/3/3 290/3/3
f 297/3/3 291/3/3 296/3/3
f 303/3/3 293/3/3 292/3/3
f 304/3/3 293/3/3 303/3/3
f 305/3/3 299/3/3 298/3/3
f 306/3/3 299/3/3 305/3/3
f 307/3/3 301/3/3 300/3/3
f 308/3/3 301/3/3 307/3/3
f 309/3/3 303/3/3 302/3/3
f 310/3/3 303/3/3 309/3/3
f 315/2/3 312/2/3 311/2/3
f 316/2/3 312/2/3 315/2/3
f 317/4/3 314/4/3 313/4/3
f 318/4/3 314/4/3 317/4/3
f 321/4/3 314/4/3 318/4/3
f 322/4/3 314/4/3 321/4/3
f 326/2/3 320/2/3 319/2/3
f 327/2/3 320/2/3 326/2/3
f 330/2/3 325/2/3 324/2/3
f 330/2/3 324/2/3 323/2/3
f 331/2/3 325/2/3 330/2/3
f 332/2/3 325/2/3 331/2/3
f 336/4/3 329/4/3 328/4/3
f 337/2/3 334/2/3 333/2/3
f 338/2/3 334/2/3 337/2/3
f 339/4/3 336/4/3 335/4/3
f 340/4/3 329/4/3 336/4/3
f 340/4/3 336/4/3 339/4/3
f 341/2/4 342/2/4 343/2/4
f 343/2/4 342/2/4 344/2/4
f 344/2/4 345/2/4 348/2/4
f 348/2/4 345/2/4 349/2/4
f 346/2/4 347/2/4 350/2/4
f 350/2/4 347/2/4 351/2/4
f 351/2/4 347/2/4 352/2/4
f 352/2/4 347/2/4 353/2/4
f 349/2/4 350/2/4 356/2/4
f 350/2/4 351/2/4 356/2/4
f 351/4/4 352/4/4 357/4/4
f 356/2/4 351/2/4 357/2/4
f 357/4/4 352/4/4 358/4/4
f 355/2/4 356/2/4 359/2/4
f 356/2/4 357/2/4 359/2/4
f 359/2/4 357/2/4 360/2/4
f 357/1/4 358/1/4 361/1/4
f 360/2/4 357/2/4 361/2/4
f 358/4/4 352/4/4 362/4/4
f 361/1/4 358/1/4 362/1/4
f 353/2/4 354/2/4 363/2/4
f 362/4/4 352/4/4 363/4/4
f 352/2/4 353/2/4 363/2/4
f 363/2/4 354/2/4 364/2/4
f 361/2/4 362/2/4 367/2/4
f 363/2/4 364/2/4 367/2/4
f 362/2/4 363/2/4 367/2/4
f 364/2/4 365/2/4 367/2/4
f 360/2/4 361/2/4 367/2/4
f 367/2/4 365/2/4 368/2/4
f 368/2/4 365/2/4 369/2/4
f 369/2/4 365/2/4 370/2/4
f 370/2/4 365/2/4 371/2/4
f 371/2/4 365/2/4 372/2/4
f 366/2/4 367/2/4 373/2/4
f 367/2/4 368/2/4 373/2/4
f 373/2/4 368/2/4 374/2/4
f 368/1/4 369/1/4 375/1/4
f 374/2/4 368/2/4 375/2/4
f 369/4/4 370/4/4 376/4/4
f 375/1/4 369/1/4 376/1/4
f 374/2/4 375/2/4 378/2/4
f 378/2/4 375/2/4 379/2/4
f 375/4/4 376/4/4 380/4/4
f 379/2/4 375/2/4 380/2/4
f 370/2/4 371/2/4 381/2/4
f 380/4/4 376/4/4 381/4/4
f 376/4/4 370/4/4 381/4/4
f 381/2/4 371/2/4 382/2/4
f 382/2/4 371/2/4 383/2/4
f 377/2/4 378/2/4 385/2/4
f 385/2/4 378/2/4 386/2/4
f 379/2/4 380/2/4 387/2/4
f 381/2/4 382/2/4 387/2/4
f 380/2/4 381/2/4 387/2/4
f 387/2/4 382/2/4 388/2/4
f 384/2/4 385/2/4 389/2/4
f 389/2/4 385/2/4 390/2/4
f 399/3/5 392/3/5 391/3/5
f 400/3/5 392/3/5 399/3/5
f 401/3/5 394/3/5 393/3/5
f 402/3/5 394/3/5 401/3/5
f 403/3/5 396/3/5 395/3/5
f 404/3/5 396/3/5 403/3/5
f 405/3/5 398/3/5 397/3/5
f 406/3/5 398/3/5 405/3/5
f 407/2/5 400/2/5 399/2/5
f 408/2/5 400/2/5 407/2/5
f 409/2/5 402/2/5 401/2/5
f 410/2/5 402/2/5 409/2/5
f 411/2/5 404/2/5 403/2/5
f 412/2/5 404/2/5 411/2/5
f 413/2/5 406/2/5 405/2/5
f 414/2/5 406/2/5 413/2/5
f 419/3/5 416/3/5 415/3/5
f 420/3/5 416/3/5 419/3/5
f 423/3/5 418/3/5 417/3/5
f 424/3/5 418/3/5 423/3/5
f 425/2/5 420/2/5 419/2/5
f 426/2/5 420/2/5 425/2/5
f 427/2/5 422/2/5 421/2/5
f 428/2/5 422/2/5 427/2/5
f 429/2/5 424/2/5 423/2/5
f 430/2/5 424/2/5 429/2/5
f 435/2/5 432/2/5 431/2/5
f 436/2/5 432/2/5 435/2/5
f 437/2/5 434/2/5 433/2/5
f 438/2/5 434/2/5 437/2/5
f 442/3/5 440/3/5 439/3/5
f 443/3/5 440/3/5 442/3/5
f 446/3/5 442/3/5 441/3/5
f 446/3/5 444/3/5 443/3/5
f 446/3/5 443/3/5 442/3/5
f 447/3/5 444/3/5 446/3/5
f 448/3/5 444/3/5 447/3/5
f 449/3/5 444/3/5 448/3/5
f 450/3/5 444/3/5 449/3/5
f 451/3/5 444/3/5 450/3/5
f 453/3/5 446/3/5 445/3/5
f 453/3/5 447/3/5 446/3/5
f 454/3/5 447/3/5 453/3/5
f 455/3/5 447/3/5 454/3/5
f 456/3/5 449/3/5 448/3/5
f 457/3/5 449/3/5 456/3/5
f 458/3/5 452/3/5 451/3/5
f 458/3/5 451/3/5 450/3/5
f 459/3/5 452/3/5 458/3/5
f 460/3/5 452/3/5 459/3/5
f 461/2/5 454/2/5 453/2/5
f 462/2/5 454/2/5 461/2/5
f 463/2/5 460/2/5 459/2/5
f 464/2/5 460/2/5 463/2/5
f 467/3/5 466/3/5 465/3/5
f 468/3/5 466/3/5 467/3/5
f 473/3/5 470/3/5 469/3/5
f 474/3/5 470/3/5 473/3/5
f 475/3/5 472/3/5 471/3/5
f 476/3/5 472/3/5 475/3/5
f 481/3/5 478/3/5 477/3/5
f 482/3/5 480/3/5 479/3/5
f 483/3/5 478/3/5 481/3/5
f 484/3/5 478/3/5 483/3/5
f 485/3/5 482/3/5 479/3/5
f 486/3/5 482/3/5 485/3/5
f 489/3/5 488/3/5 487/3/5
f 490/3/5 488/3/5 489/3/5
f 491/3/6 492/3/6 499/3/6
f 493/3/6 494/3/6 500/3/6
f 500/3/6 494/3/6 501/3/6
f 495/3/6 496/3/6 502/3/6
f 502/3/6 496/3/6 503/3/6
f 497/3/6 498/3/6 504/3/6
f 491/3/6 499/3/6 505/3/6
f 505/3/6 499/3/6 506/3/6
f 504/3/6 498/3/6 507/3/6
f 507/3/6 498/3/6 508/3/6
f 505/2/6 506/2/6 509/2/6
f 509/2/6 506/2/6 510/2/6
f 507/2/6 508/2/6 511/2/6
f 511/2/6 508/2/6 512/2/6
f 513/3/6 514/3/6 517/3/6
f 517/3/6 514/3/6 518/3/6
f 515/3/6 516/3/6 519/3/6
f 519/3/6 516/3/6 520/3/6
f 517/2/6 518/2/6 521/2/6
f 521/2/6 518/2/6 522/2/6
f 519/2/6 520/2/6 523/2/6
f 523/2/6 520/2/6 524/2/6
f 525/3/6 526/3/6 529/3/6
f 529/3/6 526/3/6 530/3/6
f 527/3/6 528/3/6 531/3/6
f 531/3/6 528/3/6 532/3/6
f 533/3/6 534/3/6 535/3/6
f 535/3/6 534/3/6 536/3/6
f 537/1/6 538/1/6 541/1/6
f 541/1/6 538/1/6 542/1/6
f 539/1/6 540/1/6 543/1/6
f 543/1/6 540/1/6 544/1/6
f 545/3/6 546/3/6 549/3/6
f 549/3/6 546/3/6 550/3/6
f 547/3/6 548/3/6 553/3/6
f 553/3/6 548/3/6 554/3/6
f 551/3/6 552/3/6 555/3/6
f 555/3/6 552/3/6 556/3/6
f 557/3/6 558/3/6 561/3/6
f 559/3/6 560/3/6 562/3/6
f 557/3/6 561/3/6 564/3/6
f 561/3/6 562/3/6 564/3/6
f 564/3/6 562/3/6 565/3/6
f 562/3/6 560/3/6 566/3/6
f 565/3/6 562/3/6 566/3/6
f 566/3/6 560/3/6 567/3/6
f 563/3/6 564/3/6 569/3/6
f 569/3/6 564/3/6 570/3/6
f 565/3/6 566/3/6 571/3/6
f 571/3/6 566/3/6 572/3/6
f 567/3/6 568/3/6 573/3/6
f 573/3/6 568/3/6 574/3/6
f 569/2/6 570/2/6 575/2/6
f 575/2/6 570/2/6 576/2/6
f 573/2/6 574/2/6 577/2/6
f 577/2/6 574/2/6 578/2/6
f 579/3/6 580/3/6 583/3/6
f 583/3/6 580/3/6 584/3/6
f 581/3/6 582/3/6 585/3/6
f 585/3/6 582/3/6 586/3/6
f 583/2/6 584/2/6 587/2/6
f 587/2/6 584/2/6 588/2/6
f 585/2/6 586/2/6 589/2/6
f 589/2/6 586/2/6 590/2/6
f 591/3/6 592/3/6 593/3/6
f 593/3/6 592/3/6 594/3/6
f 593/2/6 594/2/6 595/2/6
f 595/2/6 594/2/6 596/2/6
